<?xml version="1.0" standalone="no"?>
<!DOCTYPE svg PUBLIC "-//W3C//DTD SVG 20010904//EN"
 "http://www.w3.org/TR/2001/REC-SVG-20010904/DTD/svg10.dtd">
<svg version="1.0" xmlns="http://www.w3.org/2000/svg"
 width="4032.000000pt" height="3024.000000pt" viewBox="0 0 4032.000000 3024.000000"
 preserveAspectRatio="xMidYMid meet">
<metadata>
Created by potrace 1.15, written by Peter Selinger 2001-2017
</metadata>
<g transform="translate(0.000000,3024.000000) scale(0.100000,-0.100000)"
fill="#000000" stroke="none">
<path d="M21584 24311 c-23 -11 -46 -25 -50 -33 -12 -17 -62 -45 -116 -63
l-43 -15 30 26 c17 13 42 32 58 42 15 9 27 22 27 29 0 18 -6 17 -59 -9 -25
-12 -53 -23 -61 -23 -24 -2 -131 -85 -124 -96 8 -14 55 -8 76 9 10 8 27 12 40
9 14 -4 53 7 108 30 112 48 147 70 153 93 3 11 4 20 4 20 -1 0 -21 -9 -43 -19z"/>
<path d="M28921 24154 c-13 -7 -28 -20 -33 -29 -7 -12 -13 -13 -22 -5 -10 7
-21 6 -40 -3 -14 -8 -23 -17 -20 -20 3 -3 -9 -9 -28 -12 -19 -4 -49 -20 -66
-36 -17 -16 -45 -32 -61 -35 -42 -9 -135 -92 -228 -204 -73 -89 -273 -381
-338 -495 -16 -27 -32 -52 -35 -55 -12 -10 -180 -346 -219 -440 -18 -41 -40
-95 -51 -120 -10 -25 -34 -88 -53 -140 -87 -238 -120 -320 -130 -320 -5 0 -7
14 -3 33 10 59 41 436 60 747 17 262 24 908 12 985 -5 28 -14 56 -20 64 -6 8
-11 24 -11 35 0 16 -5 20 -23 18 -13 -2 -25 3 -28 12 -3 9 -11 16 -17 16 -13
0 -57 -48 -57 -62 0 -17 -28 -7 -33 12 -3 14 -14 20 -31 20 -25 0 -48 -17 -74
-56 -12 -18 -13 -18 -8 3 8 44 -14 33 -45 -22 -17 -30 -35 -57 -40 -60 -4 -3
-6 -12 -3 -19 9 -22 -35 -27 -46 -5 -12 22 -40 26 -40 6 0 -7 -10 -33 -21 -57
-34 -70 -59 -130 -54 -130 3 0 16 18 30 40 28 44 50 54 40 18 -4 -13 -29 -69
-56 -125 -36 -77 -54 -103 -68 -103 -13 0 -26 -16 -42 -52 -12 -29 -22 -56
-21 -60 1 -5 -2 -8 -8 -8 -5 0 -10 -6 -10 -14 0 -7 -6 -19 -14 -25 -8 -7 -17
-24 -21 -39 -3 -14 -24 -63 -46 -109 -21 -45 -39 -84 -39 -87 0 -3 -18 -44
-41 -93 -23 -48 -45 -98 -50 -110 -20 -52 -27 -17 -28 128 -1 84 -4 155 -6
160 -3 4 -5 40 -6 81 -1 91 -22 252 -44 338 -9 36 -19 81 -22 102 -5 34 -7 36
-41 36 -30 0 -42 -6 -65 -34 -16 -19 -32 -34 -36 -34 -5 0 -6 18 -4 40 5 42
-11 56 -22 20 -8 -24 -25 -17 -25 11 0 29 -20 23 -31 -11 -7 -17 -18 -30 -28
-30 -22 0 -41 -19 -41 -40 0 -9 -10 -37 -23 -61 -26 -49 -61 -64 -70 -30 -12
49 -39 13 -81 -106 -13 -38 -28 -86 -34 -108 -6 -22 -17 -62 -25 -90 -38 -129
-77 -445 -107 -870 -31 -443 -72 -843 -100 -980 -18 -90 -77 -306 -111 -406
-27 -78 -25 -91 9 -84 15 3 20 2 12 -1 -8 -4 -38 -31 -66 -60 l-51 -54 -38 72
c-49 97 -88 152 -154 221 -86 90 -181 136 -281 137 -25 0 -76 7 -115 15 -84
18 -137 19 -190 3 -22 -6 -43 -11 -47 -10 -5 1 -8 -3 -8 -8 0 -6 -6 -10 -14
-10 -16 0 -83 -37 -104 -57 -7 -7 -16 -13 -20 -13 -17 -1 -211 -187 -250 -239
-15 -20 -29 -38 -33 -41 -3 -3 -9 -12 -13 -20 -3 -8 -22 -40 -41 -70 -19 -30
-39 -66 -45 -80 -7 -14 -20 -41 -31 -60 -58 -103 -62 -119 -45 -164 17 -43 69
-86 106 -86 11 0 39 -12 61 -26 46 -29 139 -56 184 -54 17 1 36 2 43 1 17 -1
15 -21 -2 -21 -20 0 -267 -128 -377 -195 -171 -105 -279 -241 -416 -525 -74
-152 -75 -154 -82 -260 l-6 -85 -35 3 c-30 3 -44 -4 -82 -37 -48 -43 -98 -133
-98 -178 0 -14 -11 -41 -25 -59 -34 -44 -68 -139 -63 -174 2 -16 1 -27 -3 -24
-4 2 -10 0 -14 -6 -3 -6 1 -13 11 -17 15 -6 16 -22 10 -172 -7 -175 3 -249 40
-286 8 -8 11 -15 5 -15 -5 0 -16 -6 -23 -13 -47 -46 -212 -152 -343 -221 -27
-14 -77 -42 -110 -61 -100 -58 -191 -103 -272 -136 -43 -17 -82 -34 -88 -38
-16 -13 -321 -108 -450 -141 -66 -17 -166 -46 -223 -65 -85 -29 -119 -35 -187
-35 -46 0 -96 -5 -112 -11 l-28 -11 23 -18 c21 -18 31 -37 13 -26 -24 15 -39
-8 -46 -70 -5 -53 -11 -67 -31 -80 -13 -9 -24 -19 -24 -23 0 -12 57 -41 79
-41 12 0 24 -7 28 -15 3 -9 18 -22 33 -30 15 -8 31 -26 34 -41 4 -15 18 -43
32 -63 13 -19 24 -39 24 -44 0 -8 31 -79 69 -157 87 -180 160 -246 371 -338
25 -10 88 -38 140 -60 98 -43 165 -64 360 -112 63 -16 157 -40 209 -54 93 -25
192 -34 584 -52 l128 -6 24 -38 c13 -20 29 -57 35 -81 16 -57 76 -128 149
-176 105 -68 101 -64 56 -59 -77 10 -481 129 -579 171 -37 16 -213 69 -276 84
-45 11 -75 15 -340 51 -153 20 -256 39 -355 66 -71 19 -114 29 -175 43 -25 5
-92 21 -150 35 -121 29 -210 40 -475 61 -167 13 -330 34 -503 65 -29 5 -96 31
-150 58 -53 27 -137 61 -187 76 -49 15 -103 34 -118 42 -16 8 -41 14 -56 14
-15 0 -41 6 -57 14 -33 17 -289 46 -399 46 -96 0 -135 8 -135 29 0 9 -13 52
-28 97 -18 52 -29 105 -31 150 -1 37 -4 71 -6 75 -3 3 -7 24 -9 45 -9 70 -45
197 -77 274 -86 207 -102 237 -150 293 -72 81 -106 103 -359 235 -374 195
-563 270 -793 317 -82 16 -407 21 -407 6 0 -5 -39 -11 -87 -15 -184 -13 -368
-54 -478 -106 -44 -20 -105 -47 -136 -59 -31 -12 -87 -40 -124 -62 -37 -21
-69 -39 -71 -39 -2 0 -39 -25 -81 -55 -43 -31 -95 -67 -115 -80 -21 -14 -38
-30 -38 -35 0 -6 -5 -10 -10 -10 -25 0 -242 -195 -296 -265 -48 -62 -50 -68
-24 -60 31 10 26 -1 -53 -129 -56 -88 -147 -264 -147 -281 0 -3 5 -3 12 1 7 4
8 3 4 -4 -6 -11 5 -16 26 -13 4 0 10 -10 14 -24 4 -16 -1 -34 -17 -56 -20 -28
-24 -30 -34 -16 -7 9 -15 14 -19 10 -3 -4 1 8 10 25 8 18 20 32 25 32 6 0 3 7
-6 16 -9 9 -17 15 -19 13 -21 -32 -61 -172 -73 -261 -3 -21 -8 -38 -12 -38 -4
0 -8 -7 -8 -17 0 -12 8 -8 28 15 21 24 29 27 33 16 3 -9 1 -24 -4 -34 -6 -10
-10 -29 -10 -42 -1 -20 -2 -21 -11 -5 -15 26 -24 20 -26 -18 -1 -23 3 -35 11
-35 10 0 11 -12 5 -47 -21 -130 -4 -183 49 -151 15 9 37 35 48 57 28 51 59 91
72 91 5 0 12 -9 15 -19 3 -13 -3 -23 -19 -32 -13 -7 -24 -18 -24 -26 0 -7 -3
-13 -8 -13 -10 0 -36 -60 -37 -90 -4 -62 -6 -70 -16 -70 -7 0 -9 10 -5 25 9
35 -9 31 -24 -5 -14 -35 -13 -35 -65 -7 -39 22 -40 23 -42 82 -2 33 1 81 7
106 5 25 6 59 2 74 -8 27 -9 26 -25 -26 -36 -119 -77 -330 -77 -395 0 -25 7
-38 29 -54 16 -11 34 -19 39 -18 5 2 23 -7 40 -19 26 -20 32 -32 42 -97 11
-64 17 -79 46 -107 27 -26 37 -30 46 -21 7 7 22 12 35 12 13 0 23 5 23 10 0 6
5 10 12 10 8 0 9 -3 1 -11 -11 -11 -6 -56 8 -65 5 -3 9 -14 9 -25 0 -10 3 -19
8 -19 4 0 15 -19 25 -43 20 -49 103 -149 167 -202 54 -44 140 -131 140 -142 0
-4 17 -26 37 -48 19 -22 42 -50 51 -63 24 -37 102 -83 156 -92 28 -5 71 -15
96 -24 34 -12 53 -13 85 -5 60 15 88 45 102 109 7 30 15 66 19 79 7 25 1 26
-63 5 -15 -5 -15 -4 -3 5 13 9 13 11 -1 11 -20 0 -49 -31 -49 -52 0 -13 -12
-16 -63 -14 -34 1 -68 5 -75 10 -19 12 -44 65 -36 78 5 8 10 5 15 -8 6 -18 7
-18 14 -1 5 12 1 25 -13 40 -11 12 -23 32 -27 45 -5 19 -3 22 22 22 16 0 34
-5 41 -12 7 -7 12 -8 12 -2 0 6 -23 32 -50 58 -48 46 -67 45 -35 -1 20 -28 5
-37 -31 -18 -16 8 -35 15 -42 15 -7 0 -17 12 -22 26 -6 14 -19 28 -29 31 -25
6 -91 87 -91 112 0 16 6 21 25 21 16 0 25 -6 25 -15 0 -8 6 -15 13 -15 8 0 7
-4 -3 -11 -13 -9 -13 -10 0 -6 24 6 24 37 -1 63 -30 32 -16 44 16 14 31 -29
39 -23 19 14 -16 32 -11 65 10 62 7 -1 25 -12 40 -24 27 -21 167 -92 181 -92
4 0 2 7 -5 15 -7 8 -9 15 -4 15 4 0 -11 18 -35 40 -24 22 -39 45 -35 51 4 8 0
9 -15 4 -14 -4 -28 0 -43 14 -12 12 -28 21 -36 21 -7 0 -20 7 -28 15 -14 13
-13 19 4 48 13 20 18 42 15 60 -4 20 -1 27 11 27 9 0 16 7 16 15 0 8 -4 15
-10 15 -5 0 -10 6 -10 14 0 8 -4 16 -9 18 -21 8 -134 116 -147 140 -8 15 -14
29 -14 32 0 7 59 -24 66 -35 3 -5 26 -20 52 -33 26 -13 58 -33 71 -45 13 -12
28 -22 33 -22 4 -1 12 -2 18 -3 5 0 15 -7 22 -13 6 -7 16 -13 22 -13 5 0 -4
10 -20 23 -17 12 -66 55 -109 95 l-79 72 18 48 c9 26 27 76 39 112 12 36 27
71 34 78 7 7 13 20 13 28 0 8 5 14 10 14 6 0 10 9 10 19 0 11 5 23 10 26 6 4
24 34 41 67 17 33 25 57 20 53 -16 -9 -13 15 4 49 18 34 18 36 3 36 -16 0 -65
-67 -98 -133 -30 -61 -53 -74 -44 -25 4 18 11 37 15 43 5 5 9 17 9 27 0 10 5
18 10 18 6 0 10 9 10 20 0 12 8 33 19 48 10 15 40 60 66 100 26 40 58 77 70
82 12 5 27 23 34 40 6 17 15 29 21 25 5 -3 10 -1 10 5 0 6 4 9 10 5 5 -3 18 3
30 15 11 11 20 17 20 13 0 -3 10 3 23 14 24 21 88 53 107 53 7 0 24 9 40 20
91 65 352 128 375 90 3 -6 -4 -10 -17 -10 -13 -1 -59 -10 -103 -21 -98 -24
-109 -27 -115 -30 -3 -1 -9 -3 -15 -4 -44 -9 -208 -92 -245 -125 -113 -100
-200 -194 -200 -216 0 -11 5 -12 18 -5 19 11 52 47 52 59 1 14 96 108 141 138
50 34 111 55 91 32 -6 -7 -12 -31 -14 -53 -3 -35 -6 -40 -28 -40 -14 0 -34 -6
-45 -13 l-20 -14 20 6 c20 6 20 6 1 -9 -11 -8 -14 -15 -8 -15 14 0 6 -46 -11
-67 -18 -24 -22 -13 -19 49 l3 63 -30 -35 c-17 -19 -31 -46 -31 -58 0 -15 -7
-26 -20 -29 -22 -6 -26 -18 -10 -28 19 -12 10 -23 -18 -20 -16 1 -33 4 -38 8
-13 8 -28 -3 -43 -30 -19 -37 -12 -45 19 -23 16 12 42 22 57 23 16 1 33 8 38
14 6 7 21 14 35 15 l25 3 6 -263 c4 -178 10 -267 17 -274 9 -9 12 -4 13 22 1
19 1 38 0 43 0 4 5 7 12 7 9 0 9 2 -1 8 -15 10 -26 221 -23 421 1 34 1 34 19
15 21 -22 28 -88 42 -424 12 -279 42 -480 72 -480 4 0 8 -9 8 -19 0 -11 5 -23
11 -26 5 -4 14 -17 19 -30 8 -22 64 -58 74 -48 3 3 2 18 -1 34 -4 21 -2 29 8
29 8 0 24 3 35 6 17 4 23 0 28 -20 6 -26 20 -34 30 -17 4 5 -1 40 -10 77 -8
37 -13 76 -11 86 3 10 1 18 -5 18 -6 0 -8 7 -5 15 4 8 2 17 -4 21 -5 3 -9 13
-8 22 1 10 0 24 -3 32 -15 44 -25 107 -27 174 -1 41 -7 113 -12 158 -5 46 -13
117 -18 158 -6 52 -6 77 2 82 8 5 7 14 -2 32 -9 16 -12 40 -7 68 18 120 17
117 47 123 39 9 109 -3 203 -35 214 -73 242 -83 255 -96 18 -17 1 -110 -35
-188 -14 -31 -26 -66 -28 -78 -5 -49 -27 -108 -41 -108 -7 0 -20 -19 -29 -42
-89 -240 -214 -548 -227 -563 -6 -6 -12 -2 -15 13 -4 12 -10 22 -15 22 -13 0
-11 -27 3 -53 6 -12 12 -36 14 -53 2 -27 -1 -31 -17 -27 -14 4 -18 11 -13 25
6 20 -19 68 -37 68 -6 0 -8 -9 -4 -20 3 -11 2 -20 -4 -20 -10 0 -8 -78 4 -122
11 -43 0 -57 -18 -22 -13 26 -21 30 -42 27 -26 -5 -32 -17 -15 -28 6 -3 10
-17 10 -31 0 -13 3 -23 8 -23 33 6 45 -15 13 -24 -14 -3 -26 5 -43 28 -19 27
-25 30 -36 19 -7 -8 -8 -14 -2 -14 5 0 10 -4 10 -10 0 -5 -5 -10 -10 -10 -6 0
-23 -14 -39 -32 -22 -24 -32 -30 -42 -22 -13 10 -87 34 -104 34 -5 0 0 -9 11
-21 10 -11 26 -18 35 -16 10 3 27 -4 38 -15 25 -22 27 -32 6 -24 -8 3 -15 1
-15 -5 0 -13 -51 17 -91 53 -30 27 -100 78 -129 92 -24 12 29 -32 139 -117 56
-43 105 -76 110 -72 5 3 12 1 15 -4 3 -5 26 -12 51 -15 42 -7 45 -9 39 -33 -4
-15 -2 -28 5 -32 8 -5 8 -19 -3 -53 -9 -31 -10 -50 -3 -57 5 -5 11 -33 12 -61
4 -61 11 -72 31 -46 13 19 14 19 14 -6 0 -26 7 -29 43 -13 10 4 36 5 57 2 43
-5 66 7 72 38 5 29 34 20 70 -21 l31 -35 131 4 c87 2 149 9 186 21 30 9 62 19
70 21 160 45 398 121 415 134 13 10 131 47 171 54 l31 6 -8 -42 c-4 -23 -8
-48 -9 -54 0 -7 -5 -13 -12 -13 -22 0 -98 -42 -98 -54 0 -7 -9 -21 -21 -32
-17 -15 -20 -26 -15 -55 3 -21 8 -44 11 -51 4 -10 -12 -21 -50 -37 -81 -34
-78 -38 62 -81 39 -12 74 -27 76 -34 8 -20 78 -36 155 -36 62 0 81 5 164 44
129 61 186 86 196 86 17 0 78 69 112 125 19 32 55 80 79 107 34 38 42 51 32
58 -11 6 -11 9 2 11 37 9 327 303 327 333 0 2 18 36 40 75 22 39 40 77 40 85
0 25 15 26 56 7 22 -10 57 -22 78 -25 97 -18 233 1 222 30 -3 8 -2 13 2 11 4
-2 36 -21 72 -43 66 -39 148 -74 185 -79 11 -1 27 -5 35 -8 22 -7 112 -24 230
-42 58 -9 150 -26 205 -37 55 -11 109 -21 120 -23 101 -19 554 -144 596 -165
8 -4 42 -13 75 -20 61 -12 224 -56 259 -70 11 -5 43 -14 70 -21 66 -16 166
-65 188 -92 39 -49 71 -132 72 -189 1 -32 7 -64 16 -75 35 -44 77 -90 112
-122 l38 -35 -43 -43 c-24 -25 -57 -51 -75 -59 -18 -9 -58 -38 -90 -66 -32
-28 -83 -72 -113 -98 -159 -138 -328 -327 -450 -505 -19 -27 -47 -63 -62 -80
-38 -42 -88 -118 -81 -125 3 -3 22 15 44 40 21 24 41 41 44 38 11 -11 -38
-106 -62 -121 -19 -12 -16 -27 6 -27 14 0 17 -6 13 -26 -4 -23 -2 -24 22 -18
25 6 26 4 21 -18 -6 -23 -2 -26 39 -38 25 -7 46 -16 46 -21 0 -5 7 -6 15 -3
17 7 21 -11 5 -21 -17 -10 -11 -25 10 -25 10 0 23 7 28 16 8 15 11 15 36 -1
23 -16 26 -16 26 -1 0 9 36 53 81 98 45 46 110 128 146 183 63 96 239 285 348
372 155 125 205 163 211 163 4 0 17 9 28 19 30 27 198 115 281 147 227 86 641
144 818 113 39 -6 76 -16 82 -21 5 -4 17 -8 27 -8 10 0 31 -8 45 -17 47 -31
153 -21 153 15 0 5 9 17 21 28 19 17 49 65 49 79 0 3 -7 5 -15 5 -19 0 -31 46
-16 64 13 15 7 21 -52 51 -21 11 -62 41 -90 66 -69 61 -117 85 -204 98 -310
48 -842 -47 -1122 -200 -61 -34 -76 -31 -40 9 55 60 61 78 48 140 -7 31 -16
62 -22 69 -5 7 -6 17 -3 22 4 5 2 12 -4 16 -5 3 -10 15 -10 27 0 11 -8 32 -19
46 -10 15 -31 52 -46 82 -55 109 -101 159 -264 290 -92 74 -189 119 -356 165
-33 9 -82 23 -110 31 -27 8 -76 19 -107 24 -32 6 -84 20 -115 31 -32 12 -83
24 -113 29 -30 4 -94 19 -141 34 -75 22 -333 69 -679 121 -139 22 -266 57
-340 94 -30 16 -66 32 -80 36 -14 4 -54 21 -89 37 -35 16 -89 35 -120 41 -31
6 -57 12 -59 13 -3 1 -26 126 -36 192 l-6 43 157 -1 c87 -1 209 -7 271 -13 84
-8 115 -8 120 0 5 8 43 -6 115 -43 59 -30 113 -54 120 -54 7 0 24 -6 38 -14
37 -19 194 -53 334 -71 66 -9 138 -21 160 -26 22 -5 128 -13 235 -19 310 -15
399 -27 565 -75 207 -60 363 -93 513 -110 315 -36 427 -59 586 -122 123 -48
310 -108 398 -128 40 -9 165 -39 278 -66 113 -27 225 -54 250 -60 58 -13 140
-34 215 -56 33 -9 62 -17 65 -18 6 -1 120 -37 190 -60 25 -9 75 -15 110 -14
50 1 78 -5 121 -25 121 -53 186 -64 589 -91 118 -8 249 -21 290 -29 41 -8 116
-22 165 -32 69 -13 141 -18 305 -18 216 0 282 6 450 44 106 23 199 40 228 40
12 0 26 9 32 19 11 22 2 113 -12 122 -12 8 -14 58 -4 82 10 21 -9 47 -33 47
-9 0 -26 6 -37 14 -25 18 -66 25 -173 31 -79 4 -87 2 -138 -26 -46 -26 -72
-32 -171 -41 -109 -10 -129 -9 -282 15 -200 32 -303 42 -570 57 -113 6 -216
15 -230 20 -14 4 -39 11 -57 14 -17 3 -78 25 -135 49 -56 24 -147 59 -201 77
-102 33 -320 140 -396 194 -24 17 -60 43 -80 57 -67 48 -226 156 -236 160 -25
11 -85 52 -85 58 0 3 48 3 108 -2 59 -4 199 -5 312 -2 296 8 335 7 394 -16
103 -39 545 -85 736 -76 207 10 390 75 602 213 21 13 40 24 43 24 11 0 253
181 305 228 184 167 410 416 490 538 8 12 50 69 94 125 89 116 111 160 100
198 -4 14 -8 31 -9 37 0 6 -8 19 -18 28 -18 19 -23 42 -8 48 4 2 12 13 15 26
16 50 -114 128 -244 146 -71 11 -83 10 -115 -7 -37 -19 -75 -69 -75 -99 0 -10
-9 -27 -20 -38 -11 -11 -20 -27 -20 -35 0 -9 -11 -20 -24 -25 -44 -16 -41 -71
5 -90 16 -7 29 -15 29 -18 0 -11 -79 -114 -161 -208 -113 -130 -279 -287 -398
-378 -126 -95 -271 -196 -282 -196 -5 0 -9 -4 -9 -9 0 -7 -150 -81 -165 -81
-3 0 -26 -9 -51 -21 -25 -11 -87 -29 -137 -41 -87 -19 -103 -19 -277 -8 -102
7 -203 16 -225 22 -22 5 -65 14 -95 20 -30 5 -82 17 -115 26 -49 14 -94 16
-240 13 -482 -9 -863 -5 -912 10 -19 6 -39 7 -50 1 -11 -5 -159 -1 -363 9
-304 15 -357 21 -445 43 -55 15 -111 32 -125 40 -14 7 -61 26 -104 41 -44 15
-116 45 -160 66 -45 21 -86 39 -92 39 -63 0 -273 287 -277 380 -2 37 10 46 87
70 31 10 40 10 47 -1 7 -11 9 -11 9 -1 0 7 5 10 10 7 6 -3 17 1 26 9 9 9 32
16 54 16 66 0 245 58 440 142 66 29 359 178 401 203 19 13 69 40 110 60 40 20
82 44 92 53 9 8 17 12 17 8 0 -7 10 0 60 44 15 14 38 32 50 42 12 9 49 40 82
70 34 29 70 61 81 71 27 23 31 22 74 -17 41 -36 83 -59 123 -69 14 -4 49 -24
77 -46 86 -64 217 -99 405 -107 115 -4 113 -5 244 57 71 34 89 48 140 111 33
40 61 75 64 78 22 19 76 128 130 260 34 85 76 187 92 225 17 39 31 75 32 80
11 51 17 57 54 50 61 -11 63 -18 45 -125 -11 -64 -16 -162 -17 -300 -2 -310
24 -414 123 -508 52 -50 81 -68 81 -52 0 5 5 10 11 10 6 0 9 -7 5 -15 -6 -17
23 -33 139 -74 52 -18 165 -41 204 -41 21 0 70 -11 110 -25 92 -32 299 -45
420 -25 102 17 230 48 261 65 14 8 59 30 100 49 73 33 114 68 159 133 47 69
91 235 98 376 l6 108 86 -5 c146 -10 155 -9 207 17 55 28 86 58 113 108 l19
34 73 -4 c128 -7 143 -7 194 11 28 9 104 21 170 28 150 14 225 26 345 55 373
92 374 92 537 100 62 3 119 8 126 11 7 2 30 -3 51 -11 32 -14 41 -14 48 -3 8
10 11 10 15 1 6 -16 33 -17 33 -2 0 6 9 8 20 4 11 -3 20 -3 20 2 0 5 14 14 30
20 32 12 41 48 18 71 -9 9 -9 12 0 12 18 0 15 60 -4 81 -12 14 -13 24 -5 54 8
31 7 42 -7 61 -9 13 -28 27 -42 30 -14 3 -34 10 -45 16 -28 16 -103 20 -370
21 -193 1 -240 -2 -295 -17 -54 -15 -241 -57 -315 -71 -11 -2 -49 -11 -84 -20
-71 -17 -207 -41 -287 -49 -29 -3 -83 -13 -120 -22 -78 -19 -142 -22 -152 -8
-10 13 -89 49 -137 62 -38 11 -77 17 -175 29 -25 3 -53 10 -62 15 -10 5 -18 7
-18 4 0 -3 -15 0 -32 5 -18 5 -94 23 -168 39 -74 17 -160 37 -190 45 -30 7
-82 17 -115 20 -103 12 -235 44 -271 66 -19 11 -34 18 -34 14 0 -3 -10 0 -22
6 -13 7 -70 25 -128 41 -118 31 -248 38 -303 15 -39 -17 -107 -90 -107 -116 0
-11 -4 -23 -10 -26 -5 -3 -10 -16 -10 -27 0 -18 -4 -20 -37 -15 -147 23 -233
55 -233 86 0 27 -17 37 -90 56 -36 9 -85 26 -110 37 -137 63 -410 127 -541
128 -67 0 -255 -30 -279 -45 -5 -3 -43 -8 -84 -10 -67 -4 -75 -3 -81 15 -13
40 17 150 41 150 9 0 14 12 14 33 0 38 27 99 69 161 17 25 31 48 31 51 0 7 88
103 144 157 16 16 49 39 75 52 25 12 81 42 124 64 43 23 85 42 93 42 7 0 14 3
14 8 0 4 24 18 53 30 28 13 115 52 192 87 77 35 152 66 167 70 15 4 32 13 39
21 6 8 16 14 21 14 4 0 41 15 81 34 40 18 90 39 112 46 22 6 49 16 60 21 11 5
47 16 80 25 33 9 82 22 110 30 65 18 176 18 222 -1 19 -8 46 -15 60 -15 13 0
26 -7 29 -15 10 -26 41 -17 84 25 23 22 46 38 51 34 17 -10 20 22 10 101 -5
43 -7 83 -4 90 5 16 35 24 123 35 36 4 92 15 125 25 33 9 78 21 100 27 22 5
47 13 55 17 28 15 146 12 186 -3 64 -25 154 -44 234 -51 94 -7 207 -23 285
-40 33 -7 85 -18 115 -25 72 -15 100 -29 120 -62 18 -29 50 -67 159 -183 69
-73 109 -120 151 -177 50 -66 226 -231 265 -248 22 -9 71 -19 110 -23 63 -5
72 -3 98 19 16 13 35 24 42 24 17 0 95 88 95 107 0 8 9 23 20 35 26 28 25 40
-6 94 -54 92 -148 144 -263 144 l-76 1 -50 70 c-27 39 -92 110 -143 157 -67
61 -100 100 -118 139 -33 69 -96 148 -134 168 -16 8 -40 26 -52 39 -36 36 -87
51 -343 100 -99 19 -187 34 -195 34 -41 0 -173 15 -235 27 -105 20 -173 27
-242 25 -67 -2 -109 -1 -145 2 -13 1 -42 -2 -65 -6 l-42 -7 14 48 c8 26 16 61
19 76 3 16 9 43 15 60 5 18 19 86 32 152 12 66 23 126 25 133 2 8 31 12 96 12
145 1 175 10 228 67 25 27 55 69 67 94 26 52 99 234 119 299 8 25 19 54 24 65
4 11 27 74 50 140 23 66 45 129 50 140 4 11 26 67 48 125 22 58 44 114 48 125
6 13 11 -24 14 -105 4 -99 8 -124 19 -122 9 2 11 -3 7 -15 -4 -9 -9 -53 -12
-97 -5 -78 -40 -375 -69 -581 -32 -229 -28 -408 13 -495 21 -45 28 -50 84 -50
27 0 48 -5 50 -12 3 -8 29 -13 70 -14 36 -1 71 -5 78 -9 6 -4 37 -9 68 -11 59
-3 138 21 196 59 51 34 103 125 157 270 17 45 46 125 66 177 19 52 41 116 49
142 8 25 29 77 48 115 18 37 37 84 41 103 4 19 18 59 31 89 13 29 24 59 24 66
0 7 11 38 25 69 14 31 34 86 46 123 12 38 45 127 74 198 29 72 58 148 65 170
14 44 195 410 210 425 3 3 18 25 34 50 16 25 46 71 67 102 22 31 39 60 39 63
0 3 5 11 10 18 6 7 19 23 29 37 11 14 22 23 25 20 10 -11 19 -195 17 -337 -1
-91 1 -143 8 -143 5 0 12 19 14 43 2 23 4 -1 5 -53 1 -54 7 -101 13 -107 8 -8
8 -13 0 -17 -6 -4 -11 -16 -11 -27 0 -12 4 -17 11 -13 13 7 3 -33 -13 -53 -5
-7 -5 -14 1 -17 7 -5 6 -15 -1 -32 -9 -18 -9 -27 -1 -32 6 -4 9 -19 6 -34 -3
-15 -9 -25 -14 -22 -5 3 -5 -6 0 -19 10 -26 -3 -231 -19 -282 -5 -16 -12 -55
-15 -85 -9 -77 -34 -201 -45 -225 -17 -37 -53 -302 -43 -318 9 -16 -7 -56 -27
-67 -20 -11 -20 -10 -7 22 20 47 31 128 18 128 -6 0 -13 -12 -16 -27 -3 -16
-10 -48 -15 -73 -5 -25 -8 -56 -7 -70 1 -16 -3 -25 -13 -25 -12 0 -15 13 -13
60 1 55 0 57 -7 20 -8 -37 -5 -91 5 -122 2 -7 11 -10 19 -7 11 4 13 0 9 -15
-5 -18 -1 -20 33 -15 22 3 47 7 57 9 14 3 16 -1 12 -16 -5 -16 -1 -19 29 -19
19 0 38 5 41 10 11 17 44 11 55 -11 7 -11 14 -18 17 -15 4 3 12 1 18 -4 23
-19 89 -13 139 13 55 29 116 84 116 105 0 8 6 28 14 45 8 18 22 55 31 82 10
28 26 69 36 92 11 24 24 63 31 88 7 25 16 45 20 45 4 0 8 6 8 13 0 45 158 392
263 577 92 161 291 467 347 530 l30 35 -4 -260 c-4 -229 -11 -330 -31 -440 -2
-16 -7 -73 -11 -125 -3 -52 -8 -102 -11 -110 -4 -8 -6 -18 -5 -22 3 -14 -30
-158 -54 -238 -45 -146 -96 -295 -105 -304 -5 -6 -9 -17 -9 -25 0 -27 -113
-251 -123 -244 -6 3 -7 1 -3 -5 3 -6 -12 -49 -34 -95 -43 -92 -48 -112 -25
-103 26 10 16 -1 -20 -23 -24 -14 -33 -25 -29 -36 4 -11 2 -14 -9 -9 -10 3
-18 -2 -22 -16 -7 -21 -7 -21 -25 -3 -13 13 -15 24 -9 41 12 32 11 36 -4 23
-8 -6 -16 -9 -18 -7 -2 2 -53 0 -114 -4 -86 -6 -123 -14 -170 -35 -33 -15 -80
-36 -105 -47 -84 -37 -215 -107 -264 -140 -17 -11 -74 -64 -126 -117 -52 -53
-111 -110 -130 -127 -42 -36 -70 -76 -70 -103 0 -28 41 -88 65 -94 11 -3 45
-14 75 -26 65 -25 174 -38 184 -23 4 6 13 9 21 6 9 -4 33 12 62 41 64 63 146
124 213 159 30 16 64 37 75 46 50 45 252 127 320 131 39 2 95 -11 95 -22 0 -5
6 -9 14 -9 20 0 89 -81 121 -141 34 -67 48 -212 21 -232 -12 -9 -15 -20 -10
-44 8 -38 20 -50 59 -57 15 -3 32 -10 35 -17 5 -6 17 -8 29 -4 12 4 21 2 21
-4 0 -7 23 -11 58 -11 40 0 72 -7 107 -25 58 -28 83 -31 91 -10 4 9 19 15 35
15 19 0 34 8 44 24 39 59 29 383 -14 481 -22 49 -117 176 -129 172 -4 -1 -21
10 -37 26 -16 15 -34 27 -39 27 -5 0 45 52 111 115 116 111 305 329 353 409
13 21 41 59 63 85 21 25 46 55 56 66 18 22 109 130 156 185 17 19 41 46 55 60
14 15 40 44 59 66 87 100 180 203 224 249 27 27 55 62 63 77 8 15 26 39 41 53
32 29 25 33 -15 8 -27 -17 -27 -17 -12 2 63 83 334 351 435 428 66 51 121 87
132 87 15 0 17 -33 3 -92 -47 -205 -93 -366 -136 -471 -27 -66 -29 -88 -12
-105 9 -9 9 -12 0 -12 -7 0 -12 -10 -12 -23 0 -13 -4 -27 -9 -32 -4 -6 -19
-41 -32 -80 -13 -38 -26 -72 -29 -75 -14 -13 -30 -52 -25 -60 3 -4 2 -10 -2
-12 -8 -3 -40 -66 -61 -118 -30 -76 -46 -110 -71 -160 -42 -82 -122 -231 -143
-265 -10 -16 -21 -38 -24 -47 -4 -10 -10 -18 -15 -18 -5 0 -8 -4 -6 -9 2 -10
-62 -122 -76 -132 -5 -3 -8 -8 -7 -10 3 -8 -21 -56 -60 -118 -22 -34 -40 -64
-40 -66 0 -2 -23 -43 -51 -92 -29 -48 -65 -113 -82 -143 -16 -30 -36 -62 -43
-71 -8 -8 -14 -20 -14 -25 0 -5 -16 -33 -35 -61 -19 -29 -35 -55 -35 -59 0 -3
-8 -18 -19 -32 -19 -28 -87 -150 -131 -237 -14 -27 -27 -52 -30 -55 -18 -17
-40 -63 -40 -84 0 -14 -4 -28 -10 -31 -5 -3 -10 -17 -10 -30 0 -13 -3 -25 -7
-27 -12 -5 -43 -76 -43 -98 0 -10 9 -22 20 -25 28 -9 16 -22 -33 -37 -42 -12
-78 -41 -90 -72 -4 -9 -13 -16 -21 -16 -9 0 -23 -11 -32 -25 -21 -32 -45 -32
-72 0 -12 14 -26 25 -31 25 -19 0 -23 -21 -8 -38 9 -9 36 -57 61 -105 25 -49
59 -105 75 -125 16 -20 32 -50 35 -67 4 -16 12 -50 17 -75 13 -57 17 -328 5
-355 -5 -11 -11 -31 -13 -45 -6 -34 -11 -37 -22 -9 -8 23 -9 22 -20 -16 -17
-62 -13 -201 9 -306 11 -52 23 -101 27 -109 23 -53 131 -498 178 -730 61 -304
79 -347 193 -458 45 -44 52 -56 52 -90 0 -34 4 -41 24 -46 14 -3 33 -20 43
-36 10 -17 29 -34 43 -37 23 -5 79 -50 80 -64 0 -3 17 -24 38 -45 33 -36 41
-39 70 -33 34 7 95 56 87 69 -2 4 7 17 20 30 31 29 54 122 36 144 -7 8 -11 23
-9 33 1 10 -13 39 -33 63 -20 25 -47 65 -59 90 -13 25 -26 47 -30 50 -11 7
-43 117 -69 235 -46 204 -115 481 -132 520 -9 23 -65 211 -99 333 -20 73 -23
109 -25 305 -3 255 -25 454 -61 550 -8 20 -14 46 -14 57 0 27 -74 182 -94 199
-9 8 -16 19 -16 25 0 7 -13 25 -30 41 -16 16 -28 30 -26 32 10 10 121 21 131
13 14 -12 64 -12 145 -1 68 9 171 57 233 108 61 51 237 233 237 246 0 6 -18
-7 -40 -30 -22 -23 -50 -47 -61 -54 -21 -11 -21 -10 -6 11 55 79 532 531 652
618 22 16 58 45 79 65 22 20 48 39 58 43 10 3 18 9 18 13 0 5 19 21 43 37 23
16 46 35 50 41 4 7 15 13 22 13 8 0 15 5 15 10 0 6 5 10 11 10 11 0 74 47 122
91 9 9 30 22 45 29 15 8 37 23 49 33 12 11 26 16 31 13 6 -3 23 4 39 17 15 13
35 27 43 31 39 18 59 33 53 39 -3 4 3 7 15 7 12 0 22 3 22 8 0 9 62 46 74 43
5 -1 12 2 15 7 3 4 23 18 44 31 35 22 37 22 37 3 0 -10 -50 -79 -111 -152 -60
-73 -122 -149 -137 -169 -14 -20 -40 -52 -58 -71 -77 -84 -114 -128 -114 -133
0 -3 -12 -18 -27 -34 -16 -16 -64 -70 -108 -121 -44 -52 -93 -108 -109 -125
-15 -18 -69 -79 -119 -137 -51 -58 -96 -110 -102 -116 -11 -13 -62 -75 -110
-135 -74 -92 -191 -235 -202 -247 -7 -7 -13 -18 -13 -23 0 -5 -9 -19 -20 -31
-11 -12 -20 -32 -20 -45 0 -16 -6 -23 -19 -23 -27 0 -38 -58 -14 -76 17 -12
17 -13 0 -19 -14 -6 -15 -10 -6 -21 10 -13 6 -18 -13 -16 -3 1 -12 -5 -18 -13
-7 -8 -21 -15 -31 -15 -26 0 -24 -8 14 -42 45 -41 62 -46 163 -49 212 -5 319
1 419 25 94 22 421 110 530 143 28 9 86 23 130 33 124 27 375 90 430 107 28 8
77 21 110 28 33 7 114 27 180 45 206 56 425 107 419 98 -3 -4 -22 -18 -42 -29
-20 -11 -53 -30 -73 -42 -123 -74 -221 -127 -245 -133 -16 -4 -36 -15 -46 -24
-10 -9 -31 -23 -46 -30 -15 -8 -79 -42 -142 -76 -63 -34 -200 -105 -305 -158
-104 -53 -198 -105 -210 -115 -11 -10 -26 -16 -32 -14 -7 3 -13 0 -13 -6 0 -6
-6 -11 -14 -11 -8 0 -21 -7 -29 -15 -17 -17 -59 -41 -147 -86 -36 -19 -67 -36
-70 -40 -3 -3 -108 -56 -235 -118 -126 -62 -246 -121 -265 -132 -19 -11 -74
-38 -122 -62 -49 -23 -88 -47 -88 -54 0 -7 -9 -17 -20 -23 -11 -6 -23 -22 -26
-35 -3 -14 -10 -25 -15 -25 -5 0 -6 -7 -2 -16 3 -9 0 -20 -8 -25 -11 -7 -9
-10 9 -15 12 -4 22 -10 22 -14 0 -12 -68 -41 -86 -38 -25 4 -30 -22 -5 -29 11
-3 18 -9 15 -14 -3 -5 1 -9 9 -9 8 0 17 -8 20 -19 7 -27 93 -45 176 -37 36 4
129 12 206 17 77 5 151 11 165 14 14 3 52 9 84 14 33 6 89 16 125 25 37 8 93
20 126 26 33 7 105 23 160 35 55 13 197 44 315 70 118 25 231 50 250 55 19 5
62 13 95 19 33 6 96 17 140 26 44 8 168 28 275 45 107 16 213 34 235 39 22 5
65 12 95 16 l55 6 -105 -52 c-876 -432 -1138 -568 -1192 -621 -20 -20 -100
-63 -110 -60 -5 1 -8 -2 -8 -7 0 -5 -8 -11 -17 -14 -43 -14 -223 -130 -290
-185 -47 -39 -97 -108 -89 -121 3 -4 -4 -18 -16 -31 -15 -16 -18 -25 -10 -28
7 -2 12 -13 12 -23 0 -11 5 -29 10 -39 10 -18 8 -19 -20 -14 -24 5 -30 3 -30
-10 0 -10 -7 -17 -17 -15 -33 3 -36 -1 -17 -22 13 -15 15 -22 6 -28 -26 -16
207 -121 269 -121 11 0 19 -4 19 -9 0 -14 35 -19 180 -28 280 -15 581 -6 935
28 146 14 502 58 540 66 17 3 41 7 55 8 14 1 104 14 200 28 308 46 409 57 765
86 417 34 679 40 702 17 3 -3 -23 -19 -58 -36 -35 -17 -71 -35 -79 -40 -17
-11 -73 -32 -79 -30 -2 1 -7 -3 -10 -8 -3 -5 -42 -27 -86 -47 -44 -21 -87 -44
-96 -51 -21 -19 -269 -144 -269 -137 0 3 -8 -1 -17 -9 -20 -17 -81 -48 -95
-48 -6 0 -22 -8 -36 -19 -15 -10 -171 -92 -347 -181 -176 -89 -324 -166 -330
-171 -5 -5 -17 -9 -27 -9 -10 0 -18 -4 -18 -10 0 -5 -6 -10 -13 -10 -8 0 -23
-10 -35 -23 -12 -12 -52 -38 -89 -57 -37 -19 -69 -38 -71 -42 -2 -5 -12 -8
-21 -8 -10 0 -30 -11 -45 -25 -14 -13 -30 -25 -34 -25 -4 -1 -26 -10 -49 -20
-22 -10 -51 -21 -62 -25 -12 -3 -21 -10 -21 -14 0 -8 -38 -28 -54 -29 -5 0
-12 -4 -15 -9 -3 -4 -15 -13 -26 -19 -31 -17 -30 -41 1 -48 15 -4 71 -11 123
-16 89 -7 98 -6 118 13 26 23 100 28 113 7 5 -8 21 -15 37 -16 15 -1 73 -7
129 -13 101 -12 154 -5 154 19 0 6 5 8 10 5 6 -3 23 3 39 14 15 11 75 43 132
71 57 28 164 82 237 120 72 39 132 66 132 62 0 -4 4 -2 8 4 6 10 190 102 322
162 93 42 207 94 255 118 28 13 56 24 63 24 6 0 12 5 12 10 0 6 5 10 10 10 6
0 90 38 186 85 96 47 179 85 184 85 6 0 10 5 10 10 0 6 5 10 12 10 26 0 274
157 332 211 11 11 24 19 28 19 18 0 116 107 138 149 18 37 21 53 15 103 -4 36
-14 67 -25 78 -9 9 -20 28 -23 41 -6 23 -11 25 -72 26 -36 0 -71 6 -79 12 -29
24 -139 48 -256 56 -124 9 -595 5 -700 -5 -57 -5 -145 -13 -195 -16 -49 -3
-98 -10 -107 -15 -10 -6 -19 -5 -23 1 -4 6 -13 7 -23 1 -9 -4 -39 -11 -67 -14
-27 -3 -122 -15 -210 -26 -198 -25 -263 -31 -343 -33 -34 0 -65 -5 -68 -9 -3
-5 -10 -7 -15 -3 -10 6 -146 -7 -294 -26 -319 -43 -1146 -89 -1080 -60 19 9
19 9 -3 16 -32 9 -23 24 28 51 25 13 54 33 65 43 12 11 25 20 30 20 5 0 16 6
24 14 9 8 70 42 136 76 66 35 154 81 195 102 88 47 145 75 260 131 47 23 107
54 133 69 26 15 52 28 56 28 8 0 51 20 341 157 52 25 118 55 145 68 28 12 75
34 105 48 132 61 196 90 215 97 32 13 119 51 136 60 9 4 67 29 130 54 63 26
132 55 154 65 22 11 58 26 80 36 22 9 49 20 60 25 86 38 164 70 169 70 6 0 30
17 139 92 27 19 27 21 12 44 -9 14 -13 33 -10 44 5 15 2 20 -11 20 -13 0 -14
3 -4 15 7 8 18 15 25 15 12 0 29 40 20 49 -3 2 -18 4 -35 3 -32 -1 -37 7 -19
25 9 9 8 16 -5 28 -14 15 -21 15 -66 2 -34 -10 -49 -11 -47 -3 1 7 -17 10 -55
8 -32 -1 -58 2 -58 7 0 4 -30 -1 -67 -11 -38 -11 -97 -24 -133 -29 -36 -6 -72
-12 -80 -16 -21 -8 -36 -11 -100 -18 -30 -3 -66 -8 -80 -12 -14 -3 -59 -9
-100 -13 -69 -7 -109 -12 -215 -25 -74 -9 -231 -33 -400 -61 -16 -2 -61 -8
-100 -13 -38 -5 -99 -13 -135 -19 -57 -9 -152 -22 -295 -39 -22 -2 -46 -6 -54
-9 -8 -2 -53 -7 -100 -10 -102 -7 -199 -19 -286 -37 -112 -24 -168 -29 -176
-16 -14 22 -11 28 16 35 14 3 25 10 25 15 0 5 5 9 11 9 12 0 441 209 449 219
3 3 48 26 100 51 52 25 97 48 100 51 5 6 94 55 220 122 41 22 101 57 133 78
32 22 63 39 68 39 5 0 9 5 9 12 0 6 3 9 6 5 7 -6 56 25 217 139 59 42 107 80
107 85 0 5 5 9 10 9 11 0 59 41 128 109 47 46 102 135 102 165 0 16 -7 27 -20
31 -16 5 -18 10 -10 31 14 37 13 43 -14 50 -17 4 -22 11 -19 25 13 47 -54 62
-99 22 -21 -18 -21 -18 -14 10 l6 27 -87 -6 c-49 -3 -99 -5 -113 -5 -31 2 -95
-12 -300 -65 -58 -14 -112 -28 -120 -29 -8 -2 -17 -4 -20 -5 -3 -1 -9 -3 -15
-5 -5 -1 -12 -3 -15 -4 -3 -2 -14 -4 -25 -6 -11 -2 -60 -15 -110 -29 -49 -14
-128 -35 -175 -46 -120 -28 -268 -64 -386 -94 -55 -14 -136 -32 -180 -40 -43
-8 -106 -22 -139 -30 -60 -16 -337 -80 -385 -90 -103 -21 -227 -49 -240 -56
-20 -10 -90 10 -90 25 0 8 12 26 28 42 15 16 52 58 82 93 30 35 76 87 101 115
26 27 79 86 119 130 75 82 108 108 77 62 -21 -33 -15 -35 13 -5 11 12 18 28
16 35 -3 7 0 15 6 19 7 4 8 3 4 -4 -4 -7 -4 -12 0 -12 10 0 97 91 118 125 11
17 28 36 38 44 11 7 17 19 14 27 -3 8 1 14 9 14 8 0 20 8 27 19 15 22 99 119
147 170 18 20 40 49 48 66 9 16 22 34 29 38 8 4 14 14 14 21 0 8 7 17 16 20 9
4 14 9 11 12 -7 8 17 34 31 34 6 0 32 26 58 57 27 31 67 78 89 103 62 72 78
92 110 135 17 22 36 46 43 53 6 7 12 17 12 20 0 4 10 19 23 33 40 46 82 134
59 126 -13 -4 -12 13 3 49 17 42 19 70 5 79 -5 3 -10 22 -10 41 0 23 -6 38
-20 46 -11 7 -20 22 -20 33 0 15 -7 20 -31 21 -25 1 -39 -7 -67 -38 -19 -21
-37 -36 -40 -34 -2 3 3 24 12 47 l17 42 -51 -7 c-35 -5 -57 -3 -66 5 -11 9
-18 9 -26 1 -7 -7 -19 -12 -28 -12 -8 0 -28 -7 -44 -15 -15 -8 -37 -15 -48
-15 -11 0 -22 -8 -25 -20 -3 -11 -12 -20 -20 -20 -8 0 -11 5 -8 10 9 14 -39
12 -53 -2 -7 -7 -12 -9 -12 -6 0 4 -25 -4 -55 -18 -31 -13 -60 -24 -66 -24
-19 0 -218 -103 -214 -110 7 -11 -24 -34 -32 -26 -4 4 -1 11 7 16 13 8 13 10
-1 10 -8 0 -26 -11 -39 -25 -13 -14 -27 -25 -32 -25 -5 0 -18 -8 -29 -19 -12
-11 -29 -17 -41 -13 -11 2 -23 1 -27 -4 -3 -5 -33 -22 -66 -39 -33 -16 -93
-52 -134 -80 -40 -27 -119 -80 -175 -116 -108 -71 -231 -157 -250 -174 -6 -6
-27 -22 -46 -35 -42 -29 -254 -195 -293 -230 -60 -52 -73 -17 -25 62 54 87 56
90 89 153 17 33 44 78 58 100 15 22 39 65 54 95 35 69 50 93 60 101 11 8 77
141 77 155 0 6 9 21 20 34 12 13 18 30 16 37 -3 7 -1 15 4 18 8 5 39 65 141
279 11 22 19 46 19 53 0 7 5 13 10 13 6 0 10 7 10 15 0 8 4 23 9 33 17 33 95
197 96 202 2 16 42 112 65 155 42 78 96 235 130 375 6 25 17 108 24 185 10
112 10 157 0 227 -16 107 -27 132 -59 125 -22 -4 -23 -1 -18 24 5 25 2 29 -16
29 -11 0 -21 4 -21 9 0 12 -39 2 -65 -16 -23 -16 -88 -17 -116 -3 -10 6 -19 7
-19 3 0 -5 -35 -14 -77 -21 -42 -6 -81 -16 -87 -22 -5 -5 -16 -10 -23 -10 -7
0 -32 -13 -54 -30 -23 -16 -45 -27 -50 -24 -5 2 -14 -4 -21 -16 -7 -11 -18
-20 -25 -20 -7 0 -13 -5 -13 -11 0 -6 -7 -9 -15 -5 -8 3 -15 0 -15 -7 0 -7
-14 -18 -30 -25 -17 -8 -36 -19 -43 -25 -6 -7 -29 -21 -50 -32 -20 -11 -56
-37 -80 -58 -23 -21 -54 -45 -69 -55 -16 -9 -28 -20 -28 -24 0 -4 -5 -8 -11
-8 -6 0 -16 -6 -23 -12 -7 -7 -48 -44 -91 -83 -44 -38 -128 -118 -189 -177
-60 -60 -114 -108 -118 -108 -4 0 -8 -4 -8 -8 0 -5 -45 -55 -101 -113 -55 -57
-112 -120 -127 -139 -15 -19 -74 -82 -131 -140 -82 -82 -106 -101 -109 -86 -2
10 3 37 12 60 8 22 23 73 31 111 9 39 20 84 26 100 12 39 58 249 75 342 22
124 36 349 37 583 0 218 -8 310 -38 425 -28 105 -43 125 -96 125 -28 0 -42 6
-53 22 -16 22 -16 22 -16 2 0 -26 -10 -36 -24 -25 -20 17 -76 20 -104 5 -15
-8 -39 -14 -54 -14 -30 0 -35 -9 -16 -28 9 -9 5 -12 -19 -12 -18 0 -35 -5 -39
-11 -3 -6 -17 -9 -29 -7 -16 4 -22 1 -18 -9 3 -7 -2 -13 -12 -13 -9 0 -13 5
-10 10 11 17 0 11 -19 -12 -16 -18 -16 -20 -2 -15 10 4 15 3 11 -3 -3 -6 -15
-10 -27 -10 -28 0 -334 -313 -413 -423 -45 -63 -132 -173 -163 -206 l-34 -36
6 50 c17 155 20 241 20 540 -1 338 -6 403 -50 602 -17 76 -38 109 -54 83 -7
-12 -10 -11 -16 3 -8 21 -24 22 -24 1 0 -12 -6 -15 -25 -10 -20 5 -27 2 -34
-16 -8 -23 -8 -23 -27 8 -17 27 -21 29 -43 18z m-487 -411 c-217 -275 -472
-692 -568 -927 -9 -22 -19 -37 -21 -34 -9 9 111 280 140 318 7 8 29 47 50 85
21 39 46 82 56 97 11 14 19 28 19 31 0 9 201 309 239 357 68 86 143 171 148
166 3 -3 -26 -44 -63 -93z m-2174 -119 c0 -9 -13 -55 -30 -102 -48 -140 -77
-268 -94 -412 -30 -248 -36 -313 -61 -620 -14 -168 -32 -366 -41 -440 -8 -74
-17 -162 -19 -194 -3 -33 -8 -62 -11 -65 -6 -6 5 268 11 279 2 3 6 66 9 140
13 272 61 749 96 965 19 114 84 369 100 390 4 6 11 25 15 43 7 33 25 45 25 16z
m942 -1379 c-7 -55 -19 -149 -27 -210 -13 -108 -16 -128 -35 -249 -5 -32 -12
-111 -16 -175 -5 -77 -12 -123 -22 -136 -13 -18 -13 -9 -8 80 8 117 12 154 31
295 8 58 26 202 40 320 15 118 29 222 32 230 14 35 17 -61 5 -155z m-2026
-1290 c56 -80 116 -201 118 -237 1 -27 -4 -31 -56 -48 -31 -11 -139 -58 -239
-104 -101 -47 -185 -83 -187 -82 -1 2 2 16 8 32 27 69 -33 236 -65 184 -10
-16 -25 -12 -25 6 0 33 162 213 214 238 17 8 60 28 96 45 36 17 72 30 80 28 8
-1 33 -29 56 -62z m2224 -2235 c0 -16 5 -30 10 -30 6 0 10 -7 10 -16 0 -9 9
-18 20 -21 11 -3 20 -9 20 -13 0 -14 73 -20 89 -7 11 9 13 9 8 0 -4 -6 -3 -14
2 -17 13 -9 41 4 41 18 0 7 13 12 33 11 17 0 34 2 37 6 3 3 24 9 48 12 32 4
45 2 49 -9 7 -19 23 -18 23 1 0 8 9 15 20 15 11 0 20 -3 20 -7 0 -5 14 -8 30
-8 17 0 30 5 30 12 0 16 83 11 104 -6 9 -7 23 -11 31 -7 22 8 18 -10 -6 -33
-17 -15 -43 -21 -137 -27 -65 -5 -124 -8 -132 -6 -8 1 -53 -2 -100 -8 -47 -5
-113 -11 -147 -14 -57 -4 -63 -2 -63 15 0 10 -4 19 -10 19 -15 0 -30 -35 -24
-56 4 -15 -2 -23 -21 -32 -33 -15 -36 -15 -29 3 7 18 11 18 -55 -4 -36 -13
-62 -16 -76 -11 -30 11 -49 -3 -42 -31 3 -13 1 -29 -5 -36 -8 -10 -8 -17 0
-25 8 -8 13 -6 18 8 7 19 50 64 61 64 3 0 3 -7 -1 -15 -4 -12 0 -14 22 -9 15
4 40 13 55 21 37 19 41 14 21 -26 -11 -23 -33 -40 -82 -62 -63 -30 -68 -31
-97 -16 -33 17 -66 30 -77 31 -17 2 -2 21 17 22 37 1 45 4 45 14 0 14 -37 12
-43 -2 -3 -8 -6 -6 -6 5 -1 24 -16 21 -33 -5 -12 -18 -18 -20 -29 -11 -10 8
-20 9 -29 3 -40 -26 -40 4 0 47 17 18 30 39 30 47 0 22 -41 32 -52 12 -5 -9
-16 -16 -23 -16 -8 0 -15 -6 -15 -14 0 -15 -21 -26 -51 -26 -14 0 -19 7 -20
28 0 15 -2 41 -4 57 -2 17 -6 44 -8 60 -2 17 -6 35 -9 41 -4 5 -3 16 1 22 19
31 41 -46 43 -150 1 -16 5 -28 10 -28 20 0 58 33 58 51 0 10 4 20 9 23 4 3 6
17 3 31 -2 14 0 25 5 25 16 0 33 -23 33 -45 0 -13 10 -27 25 -35 22 -12 27
-11 45 5 11 10 39 19 66 21 26 1 59 7 73 13 14 5 42 12 62 15 26 5 38 13 42
27 3 12 10 18 16 14 6 -3 11 -2 11 4 0 5 -4 11 -8 13 -5 2 -7 20 -4 41 3 28 9
37 23 37 14 0 19 -7 19 -30z m-1016 -112 c15 -13 28 -36 31 -53 6 -33 -8 -54
-66 -98 -31 -23 -38 -25 -48 -13 -10 11 -9 26 3 67 9 29 16 65 16 79 0 47 24
53 64 18z m-945 -368 c6 0 11 -8 11 -18 0 -10 7 -27 15 -39 14 -20 14 -22 -5
-28 -11 -3 -20 -10 -20 -15 0 -13 39 -32 50 -25 6 3 10 2 10 -4 0 -18 -12 -41
-22 -41 -5 0 -6 5 -3 10 3 6 1 10 -4 10 -15 0 -14 -8 7 -38 10 -15 21 -34 24
-43 4 -8 28 -24 55 -34 46 -17 63 -30 63 -48 0 -17 -95 6 -113 27 -12 13 -31
21 -50 21 -26 0 -33 5 -35 22 -3 17 0 21 12 17 11 -4 16 -1 16 10 0 9 -5 15
-12 14 -19 -5 -78 106 -78 145 l1 22 12 -23 c18 -32 27 -18 27 42 1 45 2 49
14 34 7 -10 18 -18 25 -18z m-7662 -68 c-10 -10 -17 -24 -17 -30 0 -7 -7 -12
-15 -12 -7 0 -18 -7 -23 -16 -6 -11 -11 -13 -16 -5 -4 6 -23 11 -43 11 -30 0
-35 -3 -30 -20 4 -16 -6 -25 -52 -47 -31 -16 -58 -31 -61 -35 -3 -4 -26 -14
-50 -23 -25 -8 -52 -18 -60 -22 -21 -9 -60 -10 -60 -1 0 14 65 56 118 77 55
22 145 76 174 104 14 15 82 33 132 36 18 1 18 0 3 -17z m323 -32 c0 -23 -7
-24 -45 -10 -20 8 -27 7 -32 -6 -3 -8 -1 -20 4 -25 5 -5 83 -11 174 -12 196
-5 331 -30 469 -90 19 -8 55 -23 80 -33 52 -22 51 -21 108 -70 23 -20 40 -39
38 -41 -6 -7 -66 29 -66 39 0 4 -9 8 -19 8 -11 0 -23 5 -26 10 -3 6 -15 10
-25 10 -10 0 -25 9 -33 20 -8 11 -27 21 -43 23 -16 1 -40 10 -54 19 -32 21
-176 53 -302 67 -178 20 -328 11 -440 -26 -26 -8 -53 -13 -60 -11 -19 7 79 48
114 48 17 0 27 4 23 10 -3 6 -18 7 -32 4 -18 -5 -24 -3 -19 4 7 11 73 28 91
23 6 -1 4 3 -2 10 -18 19 -16 29 6 29 11 0 23 5 26 10 3 6 19 10 36 10 22 0
29 -5 29 -20z m-460 -260 c0 -11 -4 -20 -10 -20 -5 0 -7 -6 -4 -13 5 -14 -55
-67 -75 -67 -5 0 -27 -16 -48 -35 -21 -19 -44 -35 -52 -35 -8 0 -19 -7 -25
-14 -6 -8 -24 -18 -41 -21 -28 -6 -27 -4 25 44 30 28 58 51 63 51 4 0 12 11
17 25 5 14 16 25 24 25 9 0 20 9 26 20 9 18 73 58 93 60 4 0 7 -9 7 -20z m450
-151 c142 -12 249 -40 360 -93 83 -39 84 -40 50 -44 -19 -2 -134 4 -255 13
-222 18 -440 16 -515 -4 -80 -21 -90 -22 -90 -7 0 7 8 16 18 19 21 7 75 39 83
50 3 4 10 7 15 6 5 -2 34 9 64 24 46 21 74 30 150 46 3 0 57 -4 120 -10z
m1070 -79 c73 -13 139 -40 161 -66 30 -35 98 -138 94 -142 -2 -3 -21 9 -42 26
-21 16 -54 35 -73 40 -116 36 -146 51 -173 88 -37 51 -41 53 -32 24 5 -16 4
-22 -3 -15 -5 6 -12 23 -16 39 -6 23 -4 27 8 23 8 -3 42 -11 76 -17z m-308
-430 c20 -6 47 -24 60 -40 74 -94 93 -124 114 -179 13 -34 29 -76 37 -94 30
-69 37 -89 37 -105 0 -9 -15 12 -33 47 -18 35 -59 92 -91 128 -56 61 -162 143
-186 143 -27 0 -60 33 -60 61 0 26 4 29 31 29 17 0 28 4 24 10 -8 13 20 13 67
0z m-1202 -150 c0 -16 5 -32 11 -36 6 -3 9 -17 6 -30 -2 -13 -1 -24 3 -24 13
0 23 -54 11 -58 -12 -4 -15 -35 -4 -46 4 -3 8 -33 10 -66 3 -55 2 -60 -17 -60
-13 0 -20 7 -20 20 0 11 -7 20 -16 20 -8 0 -13 4 -10 9 3 5 -1 14 -9 21 -23
19 -19 58 7 62 32 5 35 28 4 28 -18 0 -26 5 -26 18 0 10 -4 22 -10 28 -15 15
9 81 32 88 17 4 19 10 13 37 -5 22 -4 29 4 25 6 -4 11 -20 11 -36z m968 -301
c32 -24 132 -123 132 -131 0 -4 9 -18 20 -30 40 -46 47 -55 48 -69 1 -8 8 -39
17 -69 8 -30 20 -86 26 -125 6 -38 15 -99 20 -135 6 -36 12 -81 15 -100 2 -19
9 -62 14 -95 17 -105 22 -97 -102 -158 -237 -117 -566 -242 -668 -252 -26 -3
-44 -14 -70 -44 -19 -23 -41 -41 -47 -41 -18 0 -16 49 2 56 8 4 15 12 15 18 0
18 24 66 33 66 4 0 7 9 7 20 0 11 4 20 9 20 5 0 14 24 20 53 6 28 18 66 26 82
8 17 30 68 50 115 20 47 43 99 51 117 8 17 14 34 14 37 0 3 11 29 24 58 44 98
76 175 76 183 0 5 14 37 30 72 17 34 30 72 30 82 0 11 5 23 11 27 13 8 50 92
48 108 -2 11 2 23 29 91 25 63 38 75 74 65 16 -5 37 -15 46 -21z m-927 -69 c4
-14 7 -42 8 -63 0 -21 4 -36 9 -34 4 3 8 -25 9 -61 1 -41 7 -68 15 -74 10 -6
10 -10 1 -16 -13 -8 -3 -157 17 -255 6 -26 10 -64 10 -84 0 -65 -20 -22 -33
70 -7 55 -16 87 -24 87 -19 0 -24 16 -14 43 7 17 7 27 0 29 -6 2 -13 22 -16
46 -3 26 -11 42 -19 42 -20 0 -17 -62 7 -150 29 -104 33 -130 21 -130 -6 0
-16 22 -23 50 -7 27 -16 47 -20 45 -10 -7 21 -126 41 -155 20 -28 24 -83 6
-77 -16 5 -47 93 -57 162 -4 33 -15 102 -23 154 -14 82 -14 95 -1 114 18 25
19 59 4 74 -6 6 -13 46 -16 88 -7 99 5 125 56 122 29 -2 37 -7 42 -27z"/>
<path d="M13954 17763 c-9 -15 -29 -19 -115 -21 -57 -2 -116 -3 -131 -3 -20 0
-25 -4 -21 -14 4 -12 -4 -15 -33 -15 -22 0 -56 -4 -77 -9 -29 -7 -39 -6 -46 6
-7 13 -9 13 -15 -2 -3 -9 -4 -21 0 -26 3 -5 -1 -9 -9 -9 -28 0 -102 -45 -104
-64 -1 -16 4 -17 35 -12 21 4 62 11 92 16 204 33 391 62 487 76 93 13 111 19
106 32 -5 12 -1 14 15 10 12 -4 25 -2 28 4 3 5 15 8 25 5 12 -3 19 0 19 9 0
10 -14 13 -60 9 -33 -2 -60 1 -60 5 0 5 -13 7 -30 4 -19 -4 -30 -2 -30 5 0 18
-64 13 -76 -6z"/>
<path d="M30422 17162 c-6 -15 -14 -43 -18 -62 -3 -19 -11 -44 -17 -55 -6 -11
-10 -24 -9 -29 2 -5 -3 -13 -10 -17 -10 -7 -10 -9 0 -9 6 0 12 -5 12 -11 0 -6
11 -20 25 -31 14 -11 25 -27 25 -36 1 -14 5 -12 21 7 17 20 19 37 18 111 -1
48 1 92 5 98 4 7 1 12 -8 12 -9 0 -16 8 -16 19 0 31 -17 33 -28 3z"/>
<path d="M31046 16773 c-16 -8 -31 -24 -33 -34 -3 -11 -9 -19 -13 -19 -5 0
-11 -9 -15 -20 -5 -17 -12 -19 -70 -13 -54 5 -66 3 -71 -11 -9 -23 -21 -20
-28 8 -8 31 -65 65 -91 55 -32 -12 -67 -11 -59 3 4 7 3 8 -4 4 -6 -4 -9 -13
-5 -21 3 -8 1 -15 -4 -15 -16 0 -63 -48 -63 -65 0 -8 -6 -15 -14 -15 -8 0 -17
-7 -20 -16 -7 -19 -40 -14 -42 6 -1 8 -2 20 -3 26 -3 32 -71 8 -71 -25 0 -21
25 -91 32 -91 5 0 8 -7 8 -15 0 -8 15 -31 33 -51 17 -21 41 -52 52 -70 11 -18
61 -77 112 -131 116 -123 126 -135 177 -208 78 -110 148 -233 140 -246 -4 -7
-3 -10 3 -6 19 12 117 -168 139 -252 2 -9 13 -50 24 -91 34 -130 26 -289 -24
-480 -2 -8 -9 -35 -15 -60 -13 -53 -92 -338 -99 -360 -3 -8 -6 -22 -8 -30 -5
-25 -63 -220 -90 -305 -32 -99 -105 -247 -168 -343 -73 -110 -311 -322 -362
-322 -8 0 -14 -4 -14 -8 0 -5 -18 -17 -41 -27 -23 -11 -62 -34 -87 -52 -26
-18 -51 -33 -57 -33 -5 0 -27 -15 -48 -33 -21 -19 -75 -53 -120 -77 -45 -24
-89 -49 -98 -57 -9 -7 -76 -41 -150 -74 -74 -34 -170 -79 -215 -100 -44 -22
-98 -42 -120 -46 -21 -3 -47 -10 -56 -15 -10 -5 -35 -4 -60 2 -38 8 -45 7 -60
-11 -33 -39 -113 -99 -132 -99 -11 0 -31 -11 -45 -24 -15 -13 -48 -36 -76 -51
-45 -24 -66 -28 -200 -37 l-150 -9 -23 27 c-17 19 -20 30 -13 37 6 6 11 17 11
24 0 11 -4 11 -20 1 -17 -11 -22 -11 -28 0 -6 9 -24 10 -73 3 -51 -7 -66 -6
-75 5 -9 11 -25 0 -87 -59 -43 -41 -78 -84 -82 -99 -4 -16 -10 -28 -14 -28 -3
0 -15 -16 -25 -35 -12 -23 -23 -32 -29 -26 -6 6 -2 20 12 39 23 33 29 76 9 70
-23 -8 -68 -82 -72 -121 -4 -36 -2 -39 57 -82 33 -25 69 -45 78 -45 10 0 19
-9 21 -22 2 -14 13 -24 31 -29 15 -4 35 -17 45 -29 16 -20 27 -22 137 -22 177
0 625 12 662 18 32 5 205 115 272 173 19 16 40 27 48 24 16 -6 84 24 193 85
25 14 61 34 80 45 19 11 62 28 95 39 63 21 192 79 287 128 31 17 63 30 71 30
9 0 17 3 19 8 2 4 30 21 63 37 33 17 64 34 70 38 29 23 117 76 135 82 11 3 33
17 49 31 16 13 48 31 70 39 23 8 61 28 85 45 25 16 47 30 50 30 7 0 93 57 161
107 100 73 248 245 314 366 19 34 37 64 40 67 13 11 92 210 117 295 14 50 30
99 35 110 9 20 55 182 85 300 8 33 23 89 34 125 10 36 24 96 31 134 l13 68 50
-7 c28 -3 55 -10 61 -14 5 -4 25 -8 43 -9 17 -1 56 -11 85 -21 133 -49 470
-52 687 -7 160 34 280 65 310 80 14 7 48 19 75 26 28 7 55 16 60 20 6 4 39 18
75 30 36 13 83 31 105 40 22 10 76 30 120 45 44 15 105 38 135 52 30 14 72 32
92 40 21 8 40 23 43 34 4 10 11 19 16 19 5 0 9 6 9 13 0 6 14 26 30 44 17 18
30 39 30 47 0 8 5 18 10 21 6 3 10 15 10 26 0 10 -4 19 -10 19 -5 0 -10 9 -10
20 0 11 -6 20 -14 20 -14 0 -28 23 -30 50 -1 8 -11 16 -24 18 -13 2 -21 9 -20
17 2 7 -19 37 -46 65 -27 28 -47 52 -45 54 2 2 31 9 64 14 33 6 87 17 120 25
33 9 77 18 99 21 21 4 43 9 49 13 5 3 20 7 31 9 12 1 50 7 86 14 36 6 88 15
115 19 28 5 86 18 130 30 44 11 95 21 114 21 30 0 91 13 131 28 8 3 24 6 35 7
50 5 165 42 185 60 16 14 18 15 50 15 11 0 20 6 20 13 0 13 59 57 77 57 17 0
38 31 26 38 -6 4 -13 16 -17 28 -5 15 0 24 19 34 32 17 32 33 -2 55 -40 26
-63 52 -63 72 -1 22 -17 43 -52 65 -14 10 -29 26 -33 37 -4 14 -18 20 -53 24
-48 5 -145 24 -172 34 -8 3 -24 7 -35 8 -11 2 -74 13 -140 26 -66 12 -140 25
-165 29 -24 4 -46 13 -48 19 -5 14 -32 15 -32 1 0 -12 -69 -12 -125 -1 -37 8
-35 9 30 11 69 2 69 3 25 11 -65 11 -139 11 -120 -1 8 -5 12 -11 10 -13 -10
-7 -312 12 -500 32 -107 11 -256 25 -330 31 -175 14 -229 19 -260 25 -14 2
-95 9 -180 15 -292 21 -718 72 -810 97 -64 17 -166 50 -195 63 -90 40 -398
122 -444 119 -9 -1 -29 -8 -45 -16z m173 -458 c67 -14 98 -25 226 -85 44 -21
89 -41 100 -45 124 -47 161 -58 230 -66 143 -16 315 -29 585 -44 146 -8 328
-20 405 -26 77 -6 170 -9 207 -6 78 5 112 -9 89 -37 -12 -14 -10 -16 18 -16
29 0 46 -19 19 -21 -29 -1 -67 -8 -104 -18 -45 -12 -80 -19 -144 -31 -45 -8
-138 -29 -345 -76 -60 -14 -123 -31 -140 -39 -16 -7 -64 -18 -105 -25 -41 -7
-86 -17 -100 -22 -14 -5 -47 -12 -75 -15 -27 -2 -61 -8 -75 -13 -14 -5 -45
-12 -70 -16 -25 -3 -50 -11 -57 -16 -7 -5 -16 -7 -20 -5 -5 3 -26 -3 -48 -13
-22 -11 -46 -19 -52 -20 -7 0 -13 -6 -13 -14 0 -19 -47 -56 -71 -56 -9 0 -19
-4 -21 -9 -1 -5 -19 -12 -39 -16 l-37 -7 -7 43 c-4 24 -30 88 -59 142 -74 145
-78 152 -88 155 -4 2 -8 10 -8 18 0 8 -4 14 -10 14 -5 0 -10 5 -10 10 0 6 -16
33 -35 61 -19 28 -35 57 -35 65 0 8 -4 14 -9 14 -5 0 -33 35 -62 78 -29 42
-76 101 -104 131 -42 46 -46 53 -25 47 14 -4 54 -14 89 -21z m431 -887 c0 -6
7 -20 17 -30 19 -21 40 -55 49 -80 3 -9 17 -19 31 -23 14 -3 38 -16 54 -27 30
-23 56 -27 274 -48 119 -12 139 -16 131 -28 -2 -4 -62 -8 -133 -10 -107 -2
-150 3 -268 27 l-140 28 -6 49 c-4 27 -11 67 -18 89 -14 49 -14 65 -1 65 6 0
10 -5 10 -12z"/>
<path d="M3462 15720 c-12 -12 -22 -25 -22 -30 0 -6 -6 -10 -14 -10 -8 0 -18
-9 -21 -20 -4 -12 -16 -20 -31 -21 -37 -2 -38 -3 -63 -26 -13 -12 -20 -27 -16
-35 3 -7 0 -6 -7 3 -16 19 -32 6 -35 -29 -2 -12 -12 -32 -23 -44 -11 -12 -20
-28 -20 -35 0 -16 -12 -17 -28 -1 -9 9 -12 8 -12 -4 0 -9 -7 -19 -16 -22 -13
-5 -14 -9 -4 -21 7 -9 10 -19 6 -22 -4 -4 -11 -1 -16 6 -9 15 -40 8 -40 -9 0
-5 9 -10 19 -10 14 0 18 -5 14 -20 -3 -11 -9 -17 -14 -14 -5 3 -9 -6 -9 -20 0
-14 -6 -26 -13 -26 -6 0 -18 -18 -25 -41 -7 -22 -24 -51 -37 -63 -14 -13 -25
-28 -25 -35 0 -6 -4 -11 -10 -11 -5 0 -10 -9 -10 -20 0 -13 -5 -18 -15 -14 -9
4 -15 1 -15 -8 0 -18 -36 -84 -59 -107 -10 -10 -22 -33 -26 -50 -4 -17 -11
-31 -16 -31 -11 0 -12 -80 0 -98 9 -16 32 -12 47 7 9 11 12 10 17 -9 4 -15 -1
-34 -16 -54 -12 -16 -41 -71 -66 -121 -24 -49 -48 -91 -53 -93 -11 -5 -10 -52
1 -52 5 0 16 -3 25 -6 11 -4 19 2 26 20 10 28 29 33 48 14 9 -9 9 -4 0 20 -11
28 -10 34 10 55 12 13 22 28 22 33 0 5 13 25 29 44 15 19 32 50 36 68 4 18 12
31 18 29 7 -2 21 15 33 37 18 36 24 41 52 38 22 -1 32 2 32 12 0 9 -7 12 -21
9 -19 -5 -20 -4 -7 17 30 53 70 72 52 26 -13 -33 18 -15 32 19 8 19 21 35 29
35 8 0 15 6 15 14 0 8 6 21 13 28 15 15 40 60 58 104 7 17 25 36 40 43 16 7
31 21 34 32 4 10 11 19 16 19 5 0 9 7 9 15 0 8 7 15 15 15 8 0 15 9 15 20 0
11 7 20 15 20 8 0 15 7 15 15 0 22 21 55 50 81 70 62 84 72 91 68 4 -2 11 1
15 7 3 6 0 15 -7 20 -8 5 -10 9 -6 9 4 0 2 6 -5 14 -7 7 -19 11 -25 9 -15 -6
-18 33 -3 42 5 3 7 12 4 19 -3 8 -1 17 5 20 23 15 -46 146 -77 146 -5 0 -18
-9 -30 -20z"/>
<path d="M21224 14465 c-5 -19 -3 -30 4 -33 15 -5 16 -32 2 -32 -18 0 -11 -35
11 -53 16 -14 18 -21 9 -32 -6 -8 -8 -20 -4 -26 4 -7 9 -28 11 -48 2 -19 8
-40 13 -46 5 -5 12 -38 16 -73 3 -34 11 -65 15 -68 5 -3 9 -13 9 -23 0 -28 26
-46 45 -31 21 18 41 -1 71 -67 14 -29 29 -53 34 -53 5 0 11 -8 14 -17 4 -10
15 -29 26 -43 19 -25 19 -25 34 -5 15 20 15 20 16 0 0 -14 15 -27 48 -44 26
-12 54 -27 62 -32 45 -27 90 -42 123 -41 15 0 27 -3 27 -7 0 -5 11 -7 25 -6
14 2 25 -1 25 -7 0 -6 -8 -7 -17 -4 -17 6 -17 5 0 -8 12 -10 29 -11 60 -5 23
4 48 8 56 9 29 0 1 12 -62 25 -78 16 -152 53 -189 93 -31 33 -75 49 -91 33
-13 -13 -30 -15 -23 -3 2 4 1 14 -5 22 -7 12 -9 11 -9 -4 0 -27 -11 -13 -14
18 -4 29 -2 30 26 15 16 -9 24 -7 37 6 15 15 14 16 -9 10 -19 -5 -33 0 -53 19
-32 30 -42 33 -33 11 3 -8 2 -15 -3 -15 -21 0 -37 129 -20 162 6 11 5 21 -4
29 -8 8 -11 33 -9 81 4 57 2 68 -11 68 -9 0 -21 8 -26 18 -9 14 -10 11 -11
-15 0 -26 -4 -33 -19 -33 -16 0 -22 11 -31 55 -6 30 -9 64 -5 75 6 20 -23 140
-34 140 -3 0 -12 -9 -19 -20 -15 -25 -69 -17 -94 14 -16 20 -17 20 -24 -9z"/>
<path d="M2212 12904 c-12 -14 -20 -30 -16 -35 3 -5 1 -9 -4 -9 -5 0 -12 -10
-15 -22 -4 -12 -9 -19 -14 -15 -4 4 -12 -5 -19 -20 -12 -28 -13 -28 -19 -5 -8
25 -20 29 -28 8 -3 -8 3 -25 13 -38 18 -24 18 -24 -1 -36 -25 -16 -34 -15 -20
2 9 11 9 16 0 22 -6 4 -16 0 -21 -10 -5 -9 -13 -14 -19 -11 -5 4 -18 8 -28 10
-14 3 -18 -1 -14 -11 3 -8 -1 -14 -10 -14 -24 0 -65 -25 -88 -54 -11 -14 -26
-26 -32 -27 -7 0 -25 -16 -40 -34 -21 -25 -26 -40 -21 -59 3 -14 11 -26 16
-26 5 0 8 -10 7 -22 -4 -35 12 -111 27 -133 8 -11 14 -30 14 -43 0 -21 3 -23
26 -18 40 10 74 36 74 57 0 21 32 42 52 34 8 -3 23 3 33 15 10 11 26 20 35 20
9 0 25 9 35 20 10 11 24 20 32 20 8 0 13 12 13 31 0 25 3 29 19 24 14 -4 21 2
31 25 7 16 10 40 7 52 -4 12 -2 27 2 32 13 17 19 79 10 98 -6 10 -5 19 1 23 5
3 10 17 10 31 0 14 7 27 15 30 24 10 19 37 -6 29 -19 -6 -20 -5 -9 16 11 19
10 21 -4 16 -19 -8 -32 11 -17 26 6 6 11 15 11 19 0 15 -15 8 -38 -18z"/>
<path d="M8684 12219 c-2 -4 -34 -10 -71 -14 -37 -4 -77 -11 -89 -15 -13 -5
-26 -4 -33 3 -8 8 -11 7 -11 -5 0 -11 -13 -18 -45 -22 -24 -4 -47 -11 -50 -17
-4 -5 -11 -7 -16 -3 -5 3 -15 2 -22 -3 -7 -5 -25 -10 -42 -12 -16 -2 -43 -10
-58 -17 -15 -8 -32 -12 -37 -9 -5 3 -25 -4 -44 -15 -20 -11 -43 -17 -51 -14
-8 4 -15 2 -15 -4 0 -5 -17 -13 -37 -17 -21 -4 -40 -10 -43 -13 -3 -4 -32 -16
-65 -26 -33 -11 -89 -35 -125 -53 -35 -18 -70 -33 -78 -33 -8 0 -26 -8 -40
-18 -15 -10 -56 -31 -92 -47 -36 -16 -69 -34 -75 -40 -5 -5 -22 -16 -37 -22
-16 -7 -28 -17 -28 -23 0 -5 -5 -10 -12 -10 -24 0 -88 -36 -93 -52 -4 -10 -12
-15 -21 -11 -7 3 -14 0 -14 -7 0 -6 -5 -8 -12 -4 -7 4 -8 3 -4 -4 4 -7 -3 -16
-18 -22 -14 -5 -42 -24 -63 -43 -21 -18 -46 -37 -55 -40 -10 -4 -18 -13 -18
-22 0 -8 -6 -15 -12 -15 -7 0 -28 -18 -47 -40 -19 -22 -38 -37 -43 -34 -4 3
-8 1 -8 -4 0 -6 -24 -35 -52 -65 -29 -30 -64 -66 -77 -81 -13 -14 -30 -26 -38
-26 -8 0 -12 -4 -8 -9 3 -5 -5 -20 -17 -33 -35 -36 -108 -122 -118 -138 -5 -8
-15 -15 -21 -15 -7 0 -13 -10 -14 -22 -1 -13 -14 -34 -29 -48 -16 -14 -31 -38
-35 -53 -5 -16 -14 -26 -24 -26 -10 1 -17 -5 -17 -12 0 -8 -4 -22 -9 -32 -5
-9 -12 -25 -15 -36 -5 -16 -9 -16 -23 -5 -14 12 -15 11 -9 -7 4 -14 0 -26 -14
-39 -11 -10 -20 -26 -20 -37 0 -10 -4 -18 -9 -18 -5 0 -12 -13 -16 -29 -3 -15
-15 -38 -25 -49 -11 -11 -22 -32 -25 -45 -4 -14 -15 -33 -25 -42 -10 -9 -16
-23 -13 -31 3 -8 -1 -14 -8 -14 -7 0 -9 -3 -6 -6 4 -4 -2 -19 -13 -33 -10 -15
-22 -39 -25 -54 -4 -15 -11 -27 -17 -27 -5 0 -7 -4 -4 -9 7 -11 -4 -42 -13
-37 -3 2 -7 -10 -7 -26 -1 -17 -8 -35 -16 -39 -9 -5 -19 -30 -24 -56 -4 -27
-8 -50 -8 -53 -1 -3 -5 -11 -10 -18 -4 -7 -5 -16 -2 -19 3 -3 2 -11 -3 -17
-20 -25 -59 -148 -75 -236 -10 -52 -22 -105 -28 -117 -6 -11 -9 -53 -6 -92 2
-47 0 -70 -7 -68 -6 3 -9 -9 -8 -27 1 -17 2 -31 3 -31 1 0 3 -36 5 -80 8 -170
18 -270 26 -273 5 -2 6 -9 2 -15 -9 -13 -12 -407 -3 -407 10 0 9 -74 -2 -87
-7 -9 -6 -14 3 -18 10 -4 14 -24 14 -64 0 -33 3 -57 8 -54 7 4 12 -57 9 -116
-1 -21 4 -38 14 -46 10 -7 18 -31 20 -65 3 -29 9 -59 14 -65 5 -7 7 -15 4 -18
-4 -3 3 -27 15 -52 12 -25 19 -50 16 -55 -3 -5 -1 -11 4 -14 5 -4 12 -25 16
-47 4 -23 15 -56 25 -73 10 -17 24 -52 31 -78 7 -27 19 -48 25 -48 7 0 18 -17
25 -37 6 -21 19 -51 27 -68 9 -16 15 -33 14 -37 -1 -3 5 -12 13 -18 8 -7 15
-19 15 -26 0 -8 5 -14 11 -14 6 0 9 -6 6 -14 -3 -8 3 -23 13 -34 10 -11 16
-23 13 -26 -4 -3 2 -6 11 -6 12 0 16 -5 12 -15 -3 -8 -1 -15 4 -15 5 0 16 -15
24 -32 7 -18 25 -43 40 -55 14 -13 26 -31 26 -41 0 -10 11 -29 25 -42 14 -13
25 -28 25 -34 0 -6 10 -16 23 -21 12 -6 23 -20 25 -33 2 -15 9 -22 17 -18 14
5 55 -33 55 -52 0 -7 7 -12 15 -12 13 0 19 -12 16 -32 0 -4 9 -10 21 -14 12
-4 38 -23 58 -43 19 -20 48 -42 65 -49 16 -8 35 -22 43 -33 8 -11 20 -18 28
-15 7 3 18 -3 24 -14 6 -11 16 -17 25 -14 8 4 15 1 15 -5 0 -6 7 -11 15 -11 8
0 15 -5 15 -11 0 -6 9 -8 20 -4 14 5 20 2 20 -9 0 -9 8 -16 19 -16 10 0 22 -7
25 -16 4 -10 13 -13 26 -9 13 4 20 2 20 -8 0 -9 9 -12 30 -9 17 2 30 0 30 -6
0 -13 43 -30 110 -43 30 -6 64 -12 75 -14 65 -13 224 -37 310 -47 120 -14 386
-18 401 -6 6 5 21 5 32 1 12 -5 49 -6 84 -3 39 3 99 -2 158 -13 122 -22 138
-25 240 -32 184 -13 260 -14 260 -3 0 7 4 7 13 1 6 -6 26 -9 42 -7 17 2 49 6
72 9 26 3 45 0 49 -7 5 -7 11 -5 20 6 7 10 18 15 24 11 7 -4 15 -3 19 3 4 6
39 12 79 14 57 2 71 6 67 17 -4 11 -2 11 8 3 10 -9 18 -8 33 1 21 14 104 42
117 39 4 -1 22 4 40 11 17 8 35 15 39 16 5 1 23 10 43 21 19 11 37 15 40 10 3
-5 24 1 45 15 22 14 43 25 48 25 4 0 19 10 31 21 19 18 25 19 32 8 8 -14 10
-12 13 13 1 13 51 29 70 22 7 -3 31 13 55 35 36 33 48 39 72 34 18 -3 29 -1
29 6 0 6 15 17 33 25 17 8 55 29 82 45 28 17 61 36 75 43 14 7 36 23 49 35 13
13 30 23 37 23 8 0 14 6 14 13 0 9 11 13 30 12 17 -1 30 2 30 7 0 4 4 8 9 8 6
0 22 11 37 25 15 14 31 25 37 25 9 0 86 61 188 150 25 22 73 60 105 85 32 25
60 50 62 55 2 5 10 6 18 3 8 -3 14 0 14 7 0 13 155 170 168 170 4 0 13 13 20
30 8 16 20 30 27 30 7 0 15 7 19 15 3 8 13 15 22 15 11 0 14 5 10 16 -3 8 1
22 9 30 8 9 15 12 15 8 0 -15 42 32 81 89 21 33 39 61 39 63 0 11 97 90 134
109 11 6 22 17 24 25 3 8 1 12 -3 8 -9 -9 -34 32 -28 45 2 4 13 7 24 7 21 0
26 15 8 26 -14 8 -3 51 22 82 10 14 19 33 19 43 0 11 5 19 10 19 6 0 10 7 10
15 0 8 5 15 10 15 6 0 10 9 10 20 0 12 8 35 17 53 19 35 36 92 85 290 5 20 14
37 19 37 7 0 9 -14 5 -37 -4 -21 -8 -54 -11 -73 -2 -19 -9 -46 -14 -60 -16
-43 -23 -100 -11 -100 5 0 10 11 10 24 0 13 7 43 15 66 8 23 15 57 15 76 0 18
5 36 10 39 6 3 7 18 4 32 -4 16 -2 28 7 34 19 11 20 362 2 380 -7 7 -13 34
-13 60 0 26 -7 60 -15 75 -17 33 -20 58 -5 49 6 -3 10 1 10 10 0 9 -4 13 -10
10 -14 -9 -12 8 3 24 9 11 9 14 0 18 -9 3 -10 10 -3 23 7 13 7 34 0 62 -5 24
-10 69 -10 100 0 31 -4 68 -9 81 -5 14 -14 58 -20 99 -6 41 -16 88 -22 104 -7
16 -11 33 -10 37 2 8 -16 71 -49 177 -9 30 -23 76 -31 103 -7 26 -17 47 -22
47 -4 0 -7 8 -6 18 1 9 -3 28 -8 42 -6 14 -23 57 -39 95 -15 39 -33 79 -41 90
-7 11 -13 27 -13 37 0 10 -4 18 -10 18 -5 0 -10 8 -10 18 0 10 -4 22 -9 27 -9
9 -33 53 -99 180 -8 17 -19 32 -22 35 -4 3 -16 21 -27 41 -10 20 -32 53 -49
75 -58 75 -95 137 -90 150 3 8 1 14 -4 14 -6 0 -10 -4 -10 -10 0 -5 -3 -10 -7
-10 -12 0 -83 68 -83 78 0 10 -88 94 -142 134 -21 16 -43 25 -52 22 -9 -3 -16
-2 -16 3 0 12 -66 80 -110 113 -18 14 -63 55 -101 93 -38 37 -71 67 -74 67 -5
0 -35 23 -59 46 -6 5 -18 13 -26 17 -8 4 -33 18 -55 32 -51 31 -131 70 -270
129 -37 17 -128 43 -178 52 -20 3 -40 10 -43 15 -3 5 -14 9 -25 9 -10 0 -19 4
-19 9 0 5 -17 12 -37 15 -44 8 -106 28 -113 37 -7 8 -60 20 -88 20 -13 -1 -21
3 -18 8 3 5 -13 12 -37 16 -23 4 -49 9 -57 11 -8 2 -35 7 -60 10 -25 3 -54 9
-65 14 -11 5 -38 11 -60 15 -22 3 -47 8 -55 10 -8 1 -40 6 -70 10 -30 3 -68 9
-85 13 -40 8 -386 9 -391 1z m1084 -576 c28 -8 50 -19 47 -23 -8 -14 228 -121
244 -111 2 2 7 -1 10 -6 8 -11 59 -42 94 -56 15 -6 27 -17 27 -24 0 -7 6 -10
13 -8 6 3 27 -9 46 -25 18 -17 39 -30 47 -30 12 0 42 -22 91 -67 13 -13 27
-23 32 -23 4 0 14 -12 22 -27 8 -16 20 -34 27 -41 14 -16 16 -52 2 -52 -5 0
-10 3 -10 8 0 4 -34 21 -75 37 -41 17 -75 35 -75 41 0 13 -87 80 -148 114 -23
13 -42 27 -42 32 0 4 -6 8 -13 8 -7 0 -43 19 -79 43 -36 24 -115 68 -174 97
-60 30 -113 58 -119 63 -5 4 -31 21 -57 37 -83 51 -58 55 90 13z m-1239 -486
c1 -95 4 -242 6 -327 3 -85 7 -263 10 -395 3 -132 8 -303 10 -380 3 -116 1
-145 -13 -172 -9 -18 -22 -33 -28 -33 -16 0 -68 -50 -77 -74 -6 -15 -14 -17
-40 -12 -35 7 -234 103 -243 117 -3 5 -13 9 -23 9 -9 0 -35 13 -57 28 -21 16
-54 35 -71 43 -18 8 -33 17 -33 21 0 5 -6 8 -14 8 -8 0 -21 8 -28 18 -7 9 -25
23 -40 31 -15 8 -25 18 -22 23 3 4 -3 8 -14 8 -10 0 -29 11 -42 25 -13 14 -29
25 -35 25 -7 0 -20 9 -30 20 -10 11 -23 20 -30 20 -6 0 -25 13 -41 30 -16 16
-35 30 -41 30 -7 0 -13 7 -13 15 0 8 -3 14 -7 14 -20 -3 -33 2 -33 14 0 7 -10
17 -22 22 -13 6 -28 20 -34 32 -6 13 -13 20 -17 17 -3 -3 -22 13 -42 35 -21
23 -44 41 -51 41 -8 0 -14 5 -14 10 0 6 -11 16 -25 22 -14 6 -25 17 -25 24 0
7 -5 14 -11 16 -17 6 -3 70 21 96 11 12 20 28 20 35 0 8 7 20 15 27 8 7 15 19
15 27 0 7 6 16 14 19 8 3 17 16 20 29 15 58 157 242 178 229 4 -3 5 3 1 12 -4
11 -2 15 7 12 8 -2 22 3 31 11 28 25 42 35 74 51 17 8 37 23 46 32 9 10 24 18
34 18 10 0 15 5 12 14 -4 9 0 12 12 9 10 -2 23 3 30 11 8 9 17 16 22 16 5 0
26 10 47 23 20 13 48 24 61 25 13 0 27 5 30 10 8 11 71 42 86 42 7 0 26 7 44
16 17 9 37 17 44 18 7 1 17 4 22 7 6 4 27 9 48 13 20 4 37 11 37 16 0 6 12 10
28 11 15 0 54 6 87 13 107 22 102 31 104 -167z m406 93 c3 -5 15 -10 26 -10
10 0 19 -6 19 -14 0 -9 7 -13 20 -11 13 2 20 -2 20 -11 0 -8 7 -14 15 -14 8 0
15 -5 15 -12 0 -6 3 -8 7 -5 3 4 13 1 21 -5 8 -7 22 -17 33 -23 46 -26 159
-108 159 -116 0 -5 4 -9 10 -9 15 0 60 -42 60 -57 0 -7 7 -13 16 -13 17 0 84
-56 203 -169 35 -34 71 -61 80 -61 9 0 0 -9 -19 -21 -19 -11 -40 -27 -45 -34
-6 -7 -30 -24 -54 -37 -24 -13 -44 -29 -44 -34 -2 -11 -38 -40 -97 -78 -25
-16 -56 -40 -70 -52 -54 -49 -125 -104 -135 -104 -6 0 -16 -9 -23 -20 -7 -11
-20 -20 -29 -20 -9 0 -33 -16 -52 -35 -65 -62 -128 -115 -138 -115 -6 0 -16
-7 -23 -15 -7 -8 -15 -15 -19 -15 -7 0 -12 247 -14 670 -1 332 21 500 58 440z
m1711 -176 c60 -4 143 -52 129 -74 -3 -6 -3 -10 2 -9 22 4 35 -2 30 -15 -4
-10 -1 -13 9 -9 8 3 14 -1 14 -9 0 -8 11 -21 25 -28 13 -7 27 -21 31 -32 3
-10 12 -18 20 -18 8 0 14 -6 14 -13 0 -7 16 -28 35 -47 19 -19 35 -41 35 -47
0 -7 5 -13 10 -13 6 0 10 -8 10 -18 0 -9 13 -33 28 -52 16 -19 35 -48 44 -65
8 -16 29 -56 47 -89 17 -32 31 -64 31 -72 0 -8 4 -14 8 -14 14 0 30 -66 21
-81 -7 -11 -9 -11 -9 2 0 9 -9 24 -20 34 -11 10 -18 20 -15 23 4 4 -25 44 -74
97 -9 11 -33 40 -51 65 -19 25 -50 63 -69 86 -83 93 -92 105 -86 114 3 4 -7
18 -21 29 -15 12 -24 21 -20 21 4 0 1 6 -6 14 -7 8 -17 13 -23 13 -5 -1 -9 4
-7 12 3 15 -16 41 -30 41 -5 0 -6 -6 -2 -12 4 -7 4 -10 0 -6 -4 3 -8 10 -9 15
-1 12 -68 75 -74 69 -7 -6 -82 63 -95 88 -9 16 -8 18 8 11 11 -4 38 -9 60 -11z
m-379 -648 c27 -31 44 -62 37 -69 -3 -3 4 -8 15 -12 12 -3 21 -13 21 -21 0 -8
3 -14 8 -14 7 0 22 -21 92 -135 24 -38 51 -82 62 -98 10 -15 16 -32 13 -37 -3
-6 -2 -10 2 -10 11 0 42 -59 46 -89 2 -14 9 -27 15 -29 7 -2 12 -8 12 -13 0
-5 7 -25 15 -45 8 -19 14 -35 13 -37 -5 -9 25 -46 33 -41 6 3 9 0 8 -7 -1 -8
5 -31 14 -51 10 -21 17 -48 17 -61 0 -13 4 -27 9 -32 16 -17 42 -165 51 -292
9 -123 0 -332 -19 -447 -6 -32 -8 -63 -5 -67 3 -5 0 -9 -5 -9 -6 0 -11 -11
-11 -24 0 -13 -7 -39 -15 -58 -12 -30 -18 -35 -39 -31 -14 3 -31 11 -37 19 -6
8 -20 14 -30 14 -11 0 -19 3 -19 8 0 4 -17 16 -37 27 -21 11 -62 34 -90 52
-29 18 -64 35 -77 39 -20 5 -24 11 -22 32 2 15 1 19 -1 10 -2 -10 -8 -18 -12
-18 -16 0 -19 13 -10 37 5 14 14 71 19 127 6 55 15 121 20 146 11 54 19 155
26 350 7 178 7 190 -7 206 -8 10 -8 14 -1 14 7 0 9 19 5 53 -3 28 -5 62 -4 75
0 12 -4 22 -9 22 -5 0 -7 13 -4 30 4 16 2 36 -4 42 -5 7 -13 40 -16 73 -4 33
-11 74 -16 90 -5 17 -16 59 -25 95 -9 36 -21 73 -26 82 -5 10 -9 25 -9 33 0 9
-9 34 -19 55 -22 45 -15 52 16 16z m-355 -81 c20 -38 37 -77 37 -86 1 -9 8
-22 17 -30 9 -7 14 -22 11 -35 -2 -13 1 -22 7 -21 5 1 11 -7 13 -18 1 -11 7
-39 13 -63 6 -24 8 -47 5 -52 -3 -4 1 -23 9 -41 8 -19 15 -63 17 -99 2 -36 8
-71 13 -79 12 -16 15 -344 3 -461 -4 -41 -10 -104 -13 -140 -3 -36 -10 -69
-15 -75 -5 -5 -9 -28 -9 -52 0 -42 -1 -43 -27 -37 -26 6 -125 56 -149 75 -6 5
-14 6 -18 2 -4 -4 -10 -3 -14 3 -10 14 -94 60 -137 74 -19 6 -35 16 -35 21 0
5 -6 9 -14 9 -15 0 -132 52 -217 95 -26 13 -49 22 -52 19 -2 -3 -25 7 -50 21
-25 14 -53 25 -62 25 -15 0 -23 3 -82 34 -17 9 -37 16 -44 16 -20 0 -163 73
-172 87 -5 7 -12 11 -17 8 -14 -8 -43 54 -36 78 3 12 0 27 -6 34 -7 9 -6 20 7
39 14 22 15 28 4 36 -10 7 -6 8 12 4 22 -5 31 0 50 29 13 19 31 35 39 35 22 1
98 72 83 77 -13 5 78 83 97 83 5 0 10 5 10 10 0 6 7 10 15 10 8 0 15 4 15 9 0
5 11 12 25 15 14 4 31 18 37 32 6 13 17 23 24 20 9 -3 11 1 7 11 -5 12 -2 15
10 10 11 -4 17 -1 17 7 0 7 10 18 23 24 40 21 61 37 80 60 11 13 22 21 24 18
10 -10 42 14 37 27 -3 9 10 18 35 27 23 7 48 21 57 32 10 10 22 18 28 18 6 0
28 16 49 35 21 19 45 35 53 35 18 0 55 21 70 39 6 8 16 11 22 7 6 -3 14 -2 17
4 15 24 42 1 77 -65z m-2654 -199 c15 -8 36 -23 46 -35 11 -12 23 -21 27 -21
5 0 22 -13 37 -30 16 -16 34 -30 39 -30 6 0 43 -32 83 -70 41 -39 79 -68 87
-66 7 3 15 1 18 -4 4 -6 17 -10 30 -10 13 0 32 -11 44 -26 11 -14 25 -23 31
-19 5 3 10 1 10 -4 0 -6 7 -11 15 -11 8 0 15 -4 15 -10 0 -5 23 -21 50 -35 28
-14 50 -32 50 -41 0 -10 6 -14 15 -10 8 3 15 1 15 -4 0 -5 11 -12 25 -16 14
-3 25 -12 25 -20 0 -8 6 -11 15 -7 9 3 22 -2 30 -13 14 -20 17 -21 61 -23 19
-1 25 -5 20 -17 -4 -12 -1 -14 14 -9 13 4 22 1 26 -9 3 -9 15 -16 26 -16 21 0
48 -22 48 -40 0 -6 -26 -36 -59 -68 -98 -96 -169 -165 -208 -204 -21 -21 -42
-38 -46 -38 -12 0 -37 -27 -37 -39 0 -6 -4 -11 -9 -11 -4 0 -63 -55 -130 -121
-115 -115 -122 -121 -139 -105 -10 9 -21 13 -24 10 -4 -3 -9 5 -14 18 -4 13
-15 29 -26 36 -10 8 -18 19 -17 25 3 26 -2 37 -17 37 -12 0 -15 6 -10 24 4 16
1 26 -9 30 -11 4 -14 14 -10 33 3 18 -4 46 -20 78 -28 59 -45 103 -51 130 -2
11 -8 29 -13 40 -14 31 -29 95 -37 153 -4 28 -10 52 -15 52 -5 0 -6 20 -2 45
4 33 2 45 -7 45 -9 0 -11 13 -7 50 3 27 2 52 -3 55 -5 3 -7 12 -3 20 3 8 2 23
-2 33 -12 27 -16 90 -5 97 12 7 3 32 -25 68 -21 27 -21 31 -7 73 8 24 16 44
19 44 2 0 16 -6 31 -14z m1299 -1356 c1 -308 5 -565 8 -571 4 -6 -3 -7 -22 -2
-15 4 -40 8 -55 8 -16 0 -28 3 -28 6 0 4 -17 9 -37 13 -92 13 -113 19 -124 32
-6 8 -24 14 -40 14 -16 0 -29 5 -29 10 0 6 -8 10 -17 10 -10 1 -40 14 -68 30
-27 17 -67 38 -87 48 -21 9 -38 22 -38 28 0 7 -33 40 -74 75 -41 35 -75 70
-75 77 -1 6 -6 12 -12 12 -6 0 -27 14 -46 30 -18 17 -37 30 -41 30 -4 0 -8 9
-9 20 -1 11 3 20 8 20 10 0 75 64 102 100 7 9 41 40 76 69 35 29 80 70 100 90
20 21 62 60 93 86 32 26 56 50 55 53 -4 13 163 167 181 167 7 0 32 16 55 37
92 80 102 87 112 77 5 -5 10 -230 12 -569z m2836 328 c-3 -34 -10 -58 -17 -58
-7 0 -11 -20 -11 -52 0 -37 -4 -52 -15 -55 -13 -4 -13 -3 0 7 12 9 10 10 -10
8 -20 -2 -24 -8 -22 -26 2 -13 -2 -30 -8 -37 -11 -13 -30 -73 -32 -102 -1 -7
-6 -13 -11 -13 -5 0 -4 -6 2 -14 9 -10 8 -16 -4 -26 -8 -7 -15 -23 -15 -37 0
-31 -38 -105 -50 -98 -6 4 -10 12 -10 20 0 17 39 108 49 115 4 3 15 37 25 75
37 143 41 155 48 155 5 0 8 20 8 44 0 25 4 47 9 50 5 3 12 26 15 50 5 32 11
43 21 40 7 -3 16 0 20 6 11 18 13 8 8 -52z m-2339 21 c32 -7 52 -7 59 0 5 5
16 6 26 1 21 -11 78 -36 114 -49 15 -6 27 -15 27 -21 0 -5 5 -10 11 -10 5 0 7
5 4 10 -7 11 74 -18 151 -55 28 -14 55 -25 61 -25 5 0 28 -9 51 -20 22 -11 45
-20 50 -20 5 0 15 -7 22 -15 7 -8 23 -15 36 -15 18 0 22 -4 17 -17 -4 -10 -3
-14 5 -9 10 6 83 -21 122 -45 8 -5 35 -19 60 -32 25 -12 47 -25 48 -29 2 -5
11 -8 20 -8 15 -1 15 -2 2 -13 -9 -7 -26 -37 -39 -67 -13 -30 -29 -62 -37 -71
-8 -8 -14 -20 -14 -25 0 -30 -22 -84 -32 -78 -6 4 -8 3 -4 -4 3 -6 -16 -52
-44 -103 -27 -50 -50 -96 -50 -102 0 -5 -7 -7 -15 -3 -8 3 -14 2 -14 -2 4 -24
-5 -44 -35 -78 -19 -21 -32 -43 -29 -50 2 -7 -5 -15 -16 -19 -11 -3 -20 -9
-19 -13 3 -16 -15 -42 -29 -42 -10 0 -13 -6 -9 -16 4 -12 2 -15 -9 -10 -9 3
-15 0 -15 -7 0 -7 -13 -26 -30 -42 -16 -16 -30 -35 -30 -42 0 -7 -3 -13 -7
-13 -5 0 -25 -16 -47 -35 -21 -19 -44 -35 -52 -35 -8 0 -14 -7 -14 -15 0 -9
-11 -21 -25 -27 -14 -6 -25 -17 -25 -24 0 -7 -6 -17 -14 -21 -8 -4 -29 -21
-48 -38 -18 -16 -45 -36 -60 -44 -16 -8 -28 -18 -28 -23 0 -4 -6 -8 -14 -8 -8
0 -28 -11 -44 -25 -17 -14 -37 -25 -46 -25 -9 0 -16 -5 -16 -11 0 -8 -4 -8
-14 0 -16 14 -34 77 -46 166 -4 33 -12 80 -18 105 -22 97 -52 1171 -33 1199 7
11 15 11 42 2 42 -14 50 -5 19 21 l-25 20 25 -7 c14 -4 47 -11 74 -16z m1254
-578 c74 -50 152 -97 218 -131 l73 -37 -24 -33 c-14 -19 -25 -42 -25 -52 0
-10 -4 -18 -10 -18 -5 0 -10 -7 -10 -15 0 -8 -3 -15 -7 -15 -9 0 -33 -48 -33
-65 0 -20 -338 -355 -358 -355 -4 0 -12 -8 -19 -19 -13 -20 -127 -101 -143
-101 -5 0 -10 -4 -10 -10 0 -5 -7 -10 -15 -10 -9 0 -18 -6 -21 -14 -3 -8 -26
-23 -50 -33 -24 -10 -44 -21 -44 -25 0 -5 -5 -8 -12 -8 -6 0 -26 -11 -44 -25
-18 -14 -41 -25 -52 -25 -11 0 -25 -7 -32 -15 -7 -8 -19 -15 -26 -15 -8 0 -14
-4 -14 -10 0 -5 -16 -10 -35 -10 -19 0 -35 2 -35 5 0 14 45 65 57 65 7 0 13 7
13 15 0 8 4 15 9 15 5 0 12 9 16 19 4 13 11 18 22 14 12 -5 15 -2 10 10 -3 9
-2 17 3 17 16 0 61 53 80 93 9 21 21 39 26 40 13 2 54 53 54 66 0 6 7 11 15
11 8 0 15 5 15 11 0 6 14 30 31 54 17 24 29 48 25 53 -3 5 6 15 19 22 14 7 25
21 25 30 0 9 9 25 20 35 11 10 20 26 20 36 0 10 5 21 11 24 6 4 8 13 5 21 -3
8 0 13 5 11 10 -2 58 71 75 113 3 8 13 30 21 49 53 118 73 176 63 179 -15 5
29 52 47 52 8 0 26 -8 41 -19z m-2603 -390 c3 -5 18 -12 34 -16 16 -3 32 -13
35 -20 3 -8 12 -12 21 -9 8 3 15 1 15 -5 0 -6 14 -11 31 -11 17 0 28 -4 24
-10 -3 -5 3 -10 14 -10 12 0 21 -4 21 -10 0 -5 8 -10 18 -10 18 -1 109 -31
129 -43 7 -4 23 -5 36 -2 17 5 26 2 30 -9 4 -10 18 -16 38 -16 24 0 30 4 25
15 -8 21 -1 19 30 -7 14 -13 35 -26 47 -30 34 -9 79 -9 73 1 -3 5 -15 7 -25 4
-10 -3 -22 1 -26 8 -6 9 4 10 46 5 30 -4 56 -11 57 -17 2 -5 12 -9 23 -9 10 0
19 -4 19 -10 0 -12 27 -14 32 -2 2 4 23 6 48 4 57 -5 89 -40 71 -78 -6 -13 -7
-24 -2 -24 5 0 12 6 14 13 3 7 6 5 6 -5 1 -10 -3 -18 -8 -18 -10 0 -2 -42 10
-50 4 -3 12 -45 18 -94 6 -49 15 -92 20 -95 12 -8 31 -114 22 -124 -15 -16
-129 -31 -238 -31 -102 -1 -113 1 -135 22 -14 12 -28 19 -32 15 -4 -4 -12 0
-17 10 -6 9 -16 17 -23 17 -7 0 -25 14 -41 30 -16 17 -35 30 -42 30 -7 0 -18
9 -25 20 -7 11 -16 20 -20 20 -7 0 -42 28 -94 78 -19 17 -39 32 -45 32 -5 0
-8 4 -4 9 3 5 -8 24 -25 42 -16 19 -30 39 -30 46 0 7 -4 13 -9 13 -5 0 -13 9
-16 20 -3 11 -13 20 -21 20 -17 0 -19 26 -1 33 6 3 -5 6 -25 6 -33 1 -37 4
-35 24 1 14 -3 21 -11 19 -17 -3 -75 45 -63 53 11 6 10 45 -1 45 -4 0 -10 20
-14 45 -3 26 -12 45 -19 45 -7 0 -15 9 -18 20 -3 11 -1 18 4 14 5 -3 9 0 9 6
0 12 34 -3 45 -19z"/>
<path d="M29885 10940 c-157 -6 -287 -16 -375 -30 -74 -11 -169 -25 -212 -30
-42 -5 -101 -16 -132 -25 -31 -9 -60 -14 -66 -10 -5 3 -10 1 -10 -4 0 -6 -7
-11 -15 -11 -25 0 -249 -78 -357 -124 -148 -63 -310 -145 -380 -194 -92 -62
-183 -126 -188 -132 -3 -3 -45 -39 -95 -80 -49 -41 -93 -78 -96 -83 -3 -5 -33
-37 -65 -72 -66 -70 -84 -92 -84 -99 0 -3 -20 -24 -44 -47 -28 -25 -43 -46
-39 -55 3 -9 0 -14 -7 -12 -8 2 -18 -6 -24 -17 -6 -11 -23 -36 -38 -56 -16
-20 -28 -39 -28 -43 0 -7 -51 -76 -77 -103 -6 -7 -15 -22 -18 -34 -6 -18 -8
-19 -19 -4 -10 14 -27 1 -132 -102 -154 -150 -294 -303 -294 -320 0 -7 -8 -13
-17 -13 -10 0 -34 -23 -53 -51 -19 -28 -41 -57 -47 -64 -7 -7 -13 -18 -13 -23
0 -6 -4 -12 -10 -14 -5 -1 -20 -23 -34 -48 -35 -64 -158 -311 -168 -337 -4
-13 -12 -33 -16 -45 -45 -120 -92 -301 -107 -413 -2 -11 -8 -47 -13 -80 -41
-230 -57 -499 -43 -691 10 -132 50 -383 76 -484 40 -151 56 -207 64 -225 5
-11 21 -56 35 -100 41 -132 57 -174 95 -256 11 -25 21 -49 21 -52 0 -6 32 -77
90 -202 10 -22 24 -55 32 -72 7 -18 17 -33 21 -33 5 0 6 -9 2 -20 -5 -14 -2
-18 7 -15 9 4 20 -6 29 -24 43 -90 236 -374 279 -411 3 -3 37 -43 75 -90 76
-92 177 -203 239 -259 21 -20 48 -46 59 -58 20 -23 47 -31 47 -15 0 4 -6 14
-12 21 -11 10 -10 11 5 6 9 -4 17 -11 17 -15 0 -5 8 -11 18 -14 9 -3 35 -21
57 -41 44 -38 156 -107 189 -116 12 -3 20 -11 19 -17 -2 -7 6 -12 16 -12 11 0
23 -5 26 -11 4 -5 17 -14 28 -20 12 -5 29 -13 37 -18 13 -8 33 -17 60 -26 7
-3 55 -22 145 -59 44 -19 100 -41 125 -51 25 -9 56 -22 70 -28 14 -5 31 -11
37 -13 7 -1 43 -12 79 -24 90 -29 328 -85 444 -104 52 -9 118 -21 145 -26 28
-5 88 -12 135 -15 47 -4 102 -8 124 -10 106 -11 378 -29 433 -29 34 -1 59 -4
57 -7 -6 -11 50 -18 63 -8 7 7 12 6 15 -2 5 -16 92 -28 114 -16 12 7 19 5 26
-7 8 -14 24 -17 81 -16 40 1 88 -3 107 -9 44 -14 379 -14 525 -1 184 17 189
18 205 23 8 3 59 10 113 16 102 12 118 15 286 57 98 24 128 34 177 56 11 5 24
8 30 7 12 -3 36 6 100 37 28 13 56 24 61 24 6 0 16 7 24 16 7 8 20 13 30 11
12 -3 16 0 12 9 -3 9 2 14 12 14 10 0 34 9 54 19 20 10 77 38 126 62 50 23 98
49 107 57 10 8 24 12 33 8 9 -3 13 -2 10 4 -3 6 1 10 9 10 9 0 16 5 16 12 0 6
3 9 6 6 3 -3 16 5 29 18 13 13 30 24 38 24 7 0 24 11 37 25 13 14 29 25 35 25
6 0 30 14 53 31 49 36 71 31 27 -6 -15 -14 -26 -27 -24 -29 2 -3 27 3 55 13
57 19 115 61 189 137 44 45 92 71 118 65 5 -1 6 3 2 9 -6 10 5 17 40 23 35 7
55 19 55 33 0 8 5 14 10 14 20 0 120 97 120 117 0 30 -26 24 -57 -12 -32 -37
-33 -38 -33 -13 0 20 8 30 30 40 17 7 30 16 30 21 0 4 21 30 48 58 26 28 57
62 69 75 12 13 29 24 38 24 14 0 14 -4 0 -36 -8 -20 -15 -38 -15 -41 0 -12 63
42 70 61 4 12 24 41 44 65 20 24 53 68 72 97 20 30 40 54 46 54 5 0 7 4 4 9
-8 13 17 61 32 61 7 0 11 4 7 10 -3 5 6 27 20 49 14 23 25 45 25 51 0 5 7 10
15 10 9 0 15 6 14 13 -3 26 1 46 14 59 7 7 24 41 37 76 14 34 28 62 32 62 5 0
8 7 8 15 0 8 12 40 26 72 38 85 73 195 86 274 11 61 10 73 -5 99 -17 28 -17
30 3 42 12 8 20 23 20 39 0 15 6 32 14 39 8 6 13 17 10 25 -3 7 -1 16 5 20 6
3 11 17 11 29 0 13 9 52 21 87 11 35 23 89 25 119 2 29 9 57 15 60 12 8 20
150 22 420 2 182 -1 217 -21 308 -13 56 -32 118 -43 136 -11 18 -21 56 -23 83
-2 27 -11 64 -20 81 -9 18 -14 32 -11 32 6 0 -93 191 -130 251 -33 51 -179
225 -212 252 -13 10 -20 23 -17 29 7 11 184 -165 184 -183 0 -17 18 -9 23 11
4 15 -3 27 -24 42 -16 12 -34 36 -41 54 -6 18 -15 31 -20 28 -4 -3 -8 1 -8 8
0 8 -9 20 -20 28 -11 8 -20 21 -20 29 0 7 -51 64 -112 124 -62 61 -112 115
-111 119 2 4 -5 8 -15 8 -24 1 -75 47 -66 62 5 7 2 9 -8 6 -10 -4 -32 13 -67
52 -28 32 -51 62 -51 67 0 4 -23 33 -50 63 -27 30 -50 58 -50 62 0 4 -9 10
-20 13 -11 3 -20 13 -20 21 0 8 -4 14 -10 14 -5 0 -10 4 -10 10 0 5 -16 27
-35 47 -19 20 -35 42 -36 48 0 5 -46 51 -101 100 -55 50 -113 101 -127 115
-14 14 -53 46 -86 70 -33 25 -67 52 -75 60 -23 23 -202 144 -236 159 -11 5
-45 36 -75 70 -30 33 -59 61 -66 61 -6 0 -23 14 -36 30 -14 17 -29 30 -32 30
-4 0 -19 12 -34 28 -15 15 -40 36 -55 47 -65 47 -122 92 -146 112 -14 13 -39
30 -56 38 -17 8 -37 21 -44 30 -7 8 -17 15 -23 15 -5 0 -24 11 -41 24 -18 13
-68 44 -111 68 -44 25 -101 57 -127 71 -25 15 -84 43 -130 63 -45 20 -85 39
-88 43 -3 3 -16 7 -28 9 -13 1 -35 11 -49 22 -14 11 -34 20 -44 20 -9 0 -19 5
-21 12 -2 6 -15 12 -29 13 -13 1 -69 16 -124 33 -187 58 -237 70 -510 121
-147 28 -197 30 -480 21z m280 -316 c55 -8 125 -17 155 -20 93 -10 331 -61
405 -87 241 -86 271 -102 170 -92 -33 4 -66 8 -73 11 -7 2 -72 6 -145 10 -72
3 -147 10 -166 16 -41 13 -138 12 -251 -1 -47 -5 -175 -10 -285 -11 -110 0
-238 -5 -285 -10 -47 -5 -102 -8 -122 -7 -21 1 -39 -1 -40 -5 -2 -4 -31 -11
-65 -14 -47 -5 -63 -4 -63 5 0 19 -159 4 -430 -39 -86 -13 -147 -27 -250 -56
-46 -13 -88 -24 -93 -24 -21 0 17 29 65 50 28 12 58 28 65 36 8 8 20 14 27 14
7 0 44 14 82 32 38 17 74 32 79 33 6 1 19 5 30 9 11 4 36 14 55 21 76 30 304
85 349 85 16 0 83 9 148 20 65 11 159 23 208 26 50 4 92 8 94 10 11 10 247 1
336 -12z m-1666 -821 c-22 -27 -58 -58 -136 -115 -40 -29 -73 -59 -73 -65 0
-7 -4 -13 -9 -13 -5 0 -30 -20 -55 -45 -26 -25 -52 -45 -59 -45 -7 0 -36 -23
-64 -50 -29 -28 -58 -50 -64 -50 -11 0 -221 -214 -262 -267 -12 -15 -34 -41
-49 -58 -26 -28 -48 -80 -48 -114 0 -10 -3 -11 -13 -2 -11 8 -11 22 -3 65 6
30 15 58 19 62 14 14 8 46 -8 40 -8 -3 -15 -1 -15 4 0 6 5 10 10 10 6 0 10 7
10 15 0 8 7 15 15 15 8 0 15 7 15 15 0 8 3 15 8 15 4 0 16 17 27 38 11 20 26
41 33 45 7 5 10 12 7 16 -11 19 177 181 320 275 83 54 163 108 179 119 24 16
213 106 225 107 2 0 -3 -8 -10 -17z m1439 -10 c27 -74 38 -219 48 -598 3 -137
8 -253 10 -257 2 -4 0 -9 -5 -13 -6 -3 -11 18 -14 52 -3 57 -3 57 -5 -13 -2
-57 -7 -77 -24 -100 -13 -16 -34 -45 -48 -65 -14 -20 -60 -73 -102 -119 l-77
-82 -63 51 c-35 28 -88 67 -118 87 -30 20 -57 40 -60 44 -3 4 -15 10 -27 14
-13 4 -23 14 -23 22 0 8 -4 14 -10 14 -5 0 -38 21 -72 48 -67 51 -96 70 -337
212 -133 78 -161 99 -161 117 0 13 5 22 12 20 7 -1 12 4 13 12 0 8 12 21 27
30 15 9 41 35 58 59 17 24 38 46 48 49 9 4 22 12 28 17 65 64 190 173 207 181
12 5 27 17 34 25 6 9 32 29 57 45 27 17 44 35 42 42 -3 7 -2 13 2 14 4 0 14 2
22 5 8 2 39 8 67 13 29 6 57 12 62 16 18 11 222 50 324 62 26 3 50 10 53 14
10 16 21 9 32 -18z m392 6 c41 -11 89 -24 105 -28 17 -4 50 -17 75 -28 25 -11
49 -20 54 -20 5 -1 12 -6 15 -11 3 -5 30 -17 59 -26 28 -10 52 -22 52 -28 0
-9 -34 -47 -133 -151 -16 -17 -80 -88 -144 -158 -63 -71 -121 -129 -127 -129
-10 0 -15 64 -19 268 -4 147 -9 282 -12 300 -2 17 -4 32 -2 32 1 0 36 -10 77
-21z m802 -56 c11 -2 31 -12 44 -22 14 -11 82 -38 152 -61 188 -62 351 -126
509 -202 45 -21 90 -41 100 -43 40 -9 90 -31 121 -53 18 -13 36 -21 39 -18 4
3 15 -1 25 -11 10 -9 18 -13 18 -9 0 10 54 -20 69 -38 8 -9 20 -16 28 -16 33
0 233 -182 233 -211 0 -9 7 -19 15 -23 8 -3 15 -10 15 -16 0 -6 23 -58 50
-116 28 -58 50 -109 50 -112 1 -4 9 -25 20 -47 11 -22 19 -48 20 -58 0 -11 6
-31 14 -45 8 -15 20 -47 27 -72 7 -25 17 -51 22 -57 5 -7 11 -30 14 -50 3 -21
11 -50 19 -64 7 -14 15 -48 18 -75 2 -27 11 -69 20 -94 9 -25 15 -56 15 -70
-1 -24 -1 -24 -14 5 l-14 30 -1 -32 c0 -17 7 -67 15 -110 8 -43 15 -96 15
-119 0 -22 4 -65 10 -95 19 -106 41 -359 39 -446 -4 -206 -49 -463 -101 -584
-8 -19 -23 -59 -33 -89 -15 -46 -46 -113 -84 -180 -4 -8 -14 -26 -20 -39 -7
-13 -21 -39 -32 -57 -10 -19 -18 -37 -18 -40 1 -3 -13 -21 -30 -39 -17 -18
-31 -38 -31 -43 0 -6 -12 -20 -26 -31 -15 -12 -23 -21 -19 -21 7 0 -29 -43
-117 -137 -21 -24 -43 -43 -48 -43 -6 0 -10 -7 -10 -15 0 -8 -9 -15 -20 -15
-11 0 -20 -4 -20 -10 0 -5 -6 -10 -12 -10 -7 0 -38 -23 -68 -51 -92 -85 -98
-89 -105 -89 -4 0 -24 -16 -44 -35 -79 -76 -118 -107 -166 -131 -27 -14 -68
-36 -90 -49 -22 -14 -60 -34 -85 -46 -25 -13 -47 -25 -50 -28 -6 -7 -43 -28
-82 -48 -15 -8 -30 -19 -33 -24 -4 -5 -11 -7 -16 -3 -5 3 -25 -4 -44 -16 -19
-12 -35 -19 -35 -16 0 4 -15 -1 -32 -11 -18 -9 -35 -18 -38 -18 -3 -1 -12 -4
-20 -8 -69 -27 -219 -71 -317 -92 -127 -28 -280 -36 -693 -36 -215 0 -438 22
-500 49 -25 11 -25 11 7 11 17 1 33 6 35 12 3 10 29 17 148 41 30 6 64 17 75
24 11 8 31 14 46 14 26 0 56 21 74 53 11 19 163 77 202 77 13 0 26 7 29 15 4
8 11 12 18 7 6 -4 36 -7 66 -7 35 0 55 -4 55 -12 0 -19 14 -27 27 -16 7 6 36
16 63 22 28 7 64 21 81 31 28 16 82 34 109 35 6 0 24 5 40 11 17 7 56 19 88
28 55 17 70 29 45 39 -15 5 115 70 148 73 12 1 40 12 62 23 23 12 49 21 60 21
10 0 23 5 30 12 6 6 18 13 26 14 19 3 68 36 61 42 -3 3 -14 -3 -24 -12 -11
-10 -26 -16 -33 -13 -9 3 -7 7 7 13 11 4 38 20 59 36 44 31 58 35 50 13 -5
-13 -1 -13 32 1 22 9 41 19 44 23 3 4 13 10 23 14 22 8 23 29 1 25 -33 -6 -22
18 27 57 28 22 57 46 64 53 7 6 18 12 24 12 6 0 11 5 11 11 0 13 107 119 120
119 5 0 11 8 14 18 4 9 27 39 52 67 47 52 114 154 114 175 0 16 24 7 28 -12 2
-8 -13 -43 -33 -77 -65 -115 -36 -119 37 -5 32 51 42 61 61 57 21 -4 21 -4 3
11 -18 15 -18 17 8 73 15 32 31 67 35 78 4 11 19 45 33 75 29 62 61 195 57
237 -1 15 3 39 8 53 13 32 27 180 28 288 0 45 3 82 6 82 3 0 1 38 -6 86 -10
74 -9 86 4 94 11 6 12 12 4 22 -6 7 -13 31 -15 53 -7 61 -64 265 -87 311 -24
50 -44 131 -35 145 8 13 44 -66 73 -156 25 -82 46 -119 36 -65 -10 54 -47 170
-56 176 -5 3 -9 15 -9 26 0 12 -18 59 -40 104 -22 46 -40 86 -40 90 0 6 -20
51 -71 158 -10 21 -16 42 -14 47 3 4 2 9 -3 11 -4 1 -20 30 -36 63 -15 33 -32
67 -37 75 -5 8 -16 31 -25 50 -19 41 -72 147 -105 209 -13 24 -32 52 -41 63
-10 10 -18 25 -18 33 0 9 -6 12 -16 8 -12 -4 -15 -2 -12 8 3 8 -15 36 -39 63
-25 28 -42 55 -39 63 3 8 2 12 -3 9 -5 -3 -15 1 -22 10 -10 12 -10 17 -1 23 8
5 -10 34 -54 90 -37 45 -69 79 -72 76 -4 -3 0 -10 8 -15 8 -5 12 -12 9 -15 -6
-5 -31 22 -94 97 -11 13 -42 48 -70 78 -27 29 -43 50 -35 45 8 -4 12 -5 8 0
-4 4 -18 13 -30 19 -13 7 -23 18 -23 26 -1 22 -15 41 -28 38 -7 -1 -23 7 -37
19 -14 12 -44 37 -67 56 -23 19 -39 37 -36 41 3 3 13 0 21 -6 7 -7 23 -13 34
-15z m-62 -302 c0 -5 -9 -11 -21 -14 -20 -5 -18 -8 17 -39 33 -29 67 -68 181
-206 16 -19 41 -47 57 -64 24 -24 27 -31 15 -39 -11 -7 -9 -9 9 -9 12 0 22 -6
22 -13 0 -25 31 -76 66 -109 19 -18 34 -40 34 -49 0 -10 4 -19 8 -21 14 -5
132 -191 132 -206 0 -9 -6 -12 -15 -8 -11 4 -6 -12 14 -52 16 -31 39 -78 50
-104 12 -26 25 -49 30 -53 5 -3 13 -20 16 -38 4 -17 11 -34 15 -37 4 -3 39
-90 77 -195 102 -274 124 -348 158 -530 19 -101 19 -353 0 -455 -11 -63 -34
-157 -41 -168 -1 -2 -21 15 -45 38 -24 22 -56 43 -71 47 -16 3 -28 9 -28 14 0
5 -7 9 -15 9 -8 0 -15 3 -15 8 0 4 -9 12 -19 17 -46 24 -225 153 -277 200 -6
5 -22 17 -34 25 -40 27 -215 163 -225 175 -17 20 -130 95 -171 114 -12 5 -23
13 -25 18 -2 4 -16 15 -31 23 -41 23 -207 135 -260 175 -25 19 -51 35 -57 35
-6 0 -11 5 -11 10 0 6 -5 10 -10 10 -14 0 -110 72 -110 82 0 13 10 9 71 -29
62 -37 90 -42 41 -6 -15 11 -71 49 -123 85 -136 92 -159 110 -159 124 0 7 -11
25 -25 40 -25 27 -25 29 -25 200 0 132 3 174 13 175 6 0 25 17 42 37 25 32 26
34 5 17 -52 -43 -64 -48 -35 -15 37 43 47 50 58 43 13 -8 77 58 77 79 0 9 15
32 33 50 17 19 50 54 72 79 22 25 48 48 58 52 9 3 16 11 15 16 -2 4 12 23 30
40 17 17 32 36 32 41 0 6 7 10 15 10 8 0 15 5 15 12 0 18 129 140 141 133 5
-4 9 1 9 9 0 9 5 16 11 16 5 0 7 5 4 10 -3 6 -2 10 4 10 6 0 30 21 53 47 24
26 53 58 66 71 12 12 22 26 22 29 0 4 7 15 17 25 17 19 43 24 43 9z m-2427
-520 c50 -27 117 -59 147 -71 30 -12 58 -28 63 -35 7 -14 77 -38 85 -30 2 2
-10 11 -27 20 -31 16 -44 39 -16 29 8 -4 15 -9 15 -13 0 -4 11 -13 25 -19 14
-7 70 -41 125 -77 54 -36 104 -65 110 -65 5 0 10 -4 10 -10 0 -5 9 -10 20 -10
11 0 20 -4 20 -10 0 -5 5 -10 11 -10 5 0 48 -25 94 -55 47 -30 87 -55 90 -55
14 0 115 -75 115 -85 0 -7 -7 -18 -15 -25 -8 -7 -15 -19 -15 -26 0 -14 -30
-20 -30 -6 0 4 -18 18 -40 32 -22 13 -40 28 -40 32 0 4 -7 8 -16 8 -9 0 -37
16 -62 36 -26 19 -87 60 -137 91 -49 31 -126 79 -170 108 -92 59 -303 187
-386 233 -51 29 -91 62 -75 62 3 0 48 -22 99 -49z m-54 -75 c16 -9 33 -11 41
-6 13 8 20 4 57 -30 9 -8 23 -15 32 -17 8 -1 17 -6 19 -12 2 -5 9 -8 17 -5 7
3 31 -6 54 -20 22 -14 44 -26 49 -26 5 0 17 -9 26 -19 10 -11 29 -22 43 -26
13 -3 30 -10 36 -16 7 -5 33 -25 60 -45 26 -19 47 -40 47 -47 0 -9 2 -9 8 0 5
8 22 1 57 -23 28 -19 60 -39 73 -44 14 -6 20 -15 16 -22 -5 -7 -3 -8 5 -4 7 5
21 0 33 -11 11 -10 22 -16 25 -14 3 1 16 -6 29 -18 13 -12 27 -21 31 -21 13 0
113 -73 113 -83 0 -5 -10 -23 -22 -40 -22 -32 -152 -184 -173 -202 -7 -5 -13
-13 -13 -17 -1 -5 -9 -16 -18 -25 -76 -86 -110 -127 -212 -253 -64 -80 -132
-163 -152 -186 -19 -22 -42 -49 -50 -60 -85 -108 -129 -163 -150 -185 -14 -14
-29 -33 -35 -41 -11 -19 -121 -165 -163 -217 -15 -18 -54 -62 -87 -98 -33 -35
-62 -69 -64 -75 -5 -15 -39 -48 -50 -48 -12 0 -23 -29 -16 -41 4 -5 -1 -6 -10
-2 -11 4 -25 -4 -41 -22 -25 -29 -30 -40 -15 -30 23 13 20 -19 -3 -50 -29 -38
-34 -65 -11 -65 8 0 15 -4 15 -8 0 -5 11 -14 24 -20 23 -10 24 -13 13 -42 -8
-22 -9 -33 -1 -38 6 -4 13 -15 17 -25 5 -14 11 -16 26 -7 26 14 31 13 25 -5
-7 -17 21 -21 31 -5 3 6 14 10 24 10 9 0 27 9 40 21 22 20 23 20 36 3 13 -18
23 -9 145 114 71 72 132 132 135 132 7 0 71 72 113 127 20 26 41 51 48 55 6 4
17 21 24 38 11 26 15 28 28 18 13 -11 14 -10 8 9 -6 18 -3 20 12 16 11 -2 23
0 26 6 4 7 1 8 -8 5 -9 -3 -16 -2 -16 3 0 16 36 44 45 36 4 -5 5 -3 1 4 -10
18 15 52 33 45 10 -4 13 -1 8 12 -5 11 7 30 39 61 25 25 49 43 53 41 4 -3 14
3 22 12 60 72 89 111 89 121 0 6 6 11 13 11 7 0 21 14 30 30 10 17 22 30 28
30 5 0 9 5 9 11 0 6 6 16 13 23 40 42 56 67 51 81 -4 11 -2 13 9 9 9 -3 21 3
30 16 16 24 104 123 180 204 28 30 46 58 43 68 -2 10 1 15 9 11 16 -5 34 26
28 47 -4 12 -3 13 5 1 8 -11 17 -6 44 24 18 22 32 45 32 52 -1 7 4 13 10 13 7
0 22 9 34 20 12 11 26 20 32 20 5 0 10 9 10 21 0 18 4 20 26 15 21 -6 25 -4
21 8 -4 9 1 19 10 25 12 6 31 0 67 -22 54 -33 62 -40 133 -99 51 -44 34 -51
-33 -13 -25 14 -51 25 -59 25 -18 0 -20 -17 -2 -23 6 -2 9 -8 5 -12 -5 -5 -16
-1 -25 7 -10 9 -29 19 -43 23 l-25 7 24 -25 c22 -25 23 -29 13 -84 -6 -32 -14
-105 -17 -163 -6 -108 -21 -239 -57 -490 -11 -80 -22 -161 -25 -180 -2 -19 -8
-71 -14 -115 -5 -44 -8 -92 -6 -107 2 -15 0 -25 -3 -23 -11 7 -33 -222 -26
-268 3 -23 13 -55 20 -72 8 -16 19 -43 25 -58 6 -15 19 -30 28 -33 42 -14 63
-29 63 -46 0 -10 3 -18 8 -18 4 0 13 -13 20 -29 7 -16 19 -32 27 -34 16 -7 75
47 75 67 0 7 9 16 21 19 16 4 19 11 14 26 -4 13 -2 21 5 21 6 0 8 10 4 25 -4
17 -1 32 10 44 15 16 15 19 -3 35 -16 15 -18 28 -15 99 4 85 21 241 29 267 5
16 23 128 56 350 18 121 31 229 45 373 5 48 28 87 51 87 7 0 13 6 13 14 0 8
12 18 27 23 l28 10 -37 24 c-56 36 -49 56 7 23 84 -49 68 -7 -20 52 -27 19
-45 34 -40 34 6 0 34 -18 63 -40 29 -22 55 -40 57 -40 3 0 42 -22 86 -50 44
-27 84 -50 88 -50 4 0 16 -9 26 -20 10 -11 21 -20 25 -20 9 0 166 -104 195
-128 11 -10 36 -26 55 -36 19 -11 43 -26 52 -35 31 -29 47 -41 56 -41 4 0 18
-9 29 -19 12 -11 36 -27 54 -35 34 -16 70 -37 79 -46 3 -3 25 -21 50 -40 25
-19 70 -57 101 -85 30 -27 68 -57 84 -65 32 -17 63 -46 326 -306 103 -101 194
-184 203 -184 8 0 20 -9 26 -20 9 -17 8 -20 -11 -17 -18 2 -29 -11 -59 -66
-20 -37 -41 -72 -48 -79 -7 -7 -12 -18 -12 -25 0 -7 -13 -28 -30 -46 -16 -19
-30 -39 -30 -44 0 -13 -187 -204 -229 -234 -19 -13 -47 -34 -62 -46 -15 -13
-32 -23 -38 -23 -6 0 -11 -7 -11 -15 0 -8 -5 -15 -11 -15 -6 0 -28 -13 -49
-30 -39 -31 -50 -36 -50 -22 0 4 20 21 45 37 24 17 45 33 45 36 0 4 18 18 40
33 53 35 221 206 214 217 -3 5 2 6 10 3 9 -3 19 3 27 18 6 13 25 39 41 58 34
41 35 43 69 95 15 22 35 57 44 78 10 20 21 37 25 37 4 0 10 14 14 31 5 26 1
35 -30 64 -52 49 -69 52 -90 15 -10 -16 -21 -30 -25 -30 -3 0 -18 -17 -31 -37
-45 -69 -174 -202 -253 -262 -85 -65 -125 -92 -125 -84 0 4 -4 3 -8 -3 -9 -13
-109 -74 -122 -74 -6 0 -10 -4 -10 -10 0 -5 -5 -10 -10 -10 -13 0 -61 -24
-142 -69 -31 -17 -83 -40 -115 -50 -32 -11 -93 -33 -137 -50 -146 -56 -430
-128 -616 -156 -131 -19 -502 -38 -595 -30 -133 11 -180 16 -210 20 -16 3 -48
7 -70 10 -174 25 -302 49 -312 57 -7 6 -13 8 -13 4 0 -3 -15 0 -34 8 -18 7
-53 17 -77 21 -61 10 -143 36 -151 49 -4 6 -11 11 -15 12 -4 0 -30 11 -58 24
-27 12 -84 37 -125 54 -191 81 -216 105 -265 262 -21 65 -41 126 -45 135 -8
15 -50 175 -70 264 -33 145 -47 273 -40 360 4 55 -14 374 -22 369 -12 -7 -10
3 5 26 10 17 9 22 -2 29 -10 7 -12 20 -6 57 8 47 10 59 19 134 6 39 9 54 38
190 11 52 24 100 30 106 5 7 8 16 7 20 -1 5 -1 11 1 14 1 3 3 15 6 27 2 12 10
39 18 60 8 21 24 65 36 97 20 56 58 133 98 201 77 131 95 160 107 170 8 5 18
26 23 45 5 19 14 34 20 33 6 -2 9 4 5 13 -4 10 1 17 15 21 12 3 18 10 15 19
-3 8 2 17 11 20 9 3 16 11 16 18 0 10 50 75 58 76 2 0 15 -6 31 -14z m4447
-300 c16 -19 49 -65 74 -101 25 -36 57 -81 73 -99 28 -34 35 -56 17 -56 -5 0
-14 8 -19 18 -6 9 -10 13 -11 7 0 -20 18 -38 32 -32 8 3 21 1 29 -4 11 -7 12
-11 1 -17 -10 -7 -10 -11 2 -21 8 -6 17 -23 20 -36 4 -14 11 -25 16 -25 6 0
10 -4 10 -10 0 -5 11 -33 24 -62 25 -53 51 -136 48 -150 -1 -5 3 -8 8 -8 6 0
10 -28 10 -62 0 -35 9 -97 20 -138 40 -150 53 -265 45 -415 -3 -77 -11 -171
-17 -210 -6 -38 -12 -83 -14 -100 -2 -16 -15 -73 -30 -125 -14 -52 -26 -103
-27 -112 -1 -10 -4 -18 -8 -18 -4 0 -11 -15 -14 -32 -4 -18 -16 -45 -26 -60
-11 -15 -19 -30 -18 -35 5 -19 -14 -64 -25 -60 -6 3 -12 -7 -13 -23 -2 -28
-29 -81 -69 -135 -12 -16 -29 -46 -37 -65 -8 -19 -33 -55 -56 -80 -22 -25 -41
-48 -41 -53 0 -4 -30 -38 -67 -76 -38 -38 -81 -83 -96 -100 -16 -17 -35 -31
-43 -31 -8 0 -14 -4 -14 -9 0 -4 -25 -28 -56 -52 -32 -24 -66 -52 -76 -62 -11
-10 -39 -31 -63 -46 -25 -16 -42 -31 -38 -35 3 -3 -1 -6 -10 -6 -8 0 -28 -11
-44 -24 -39 -32 -85 -53 -105 -49 -27 7 -22 17 27 59 93 80 195 181 189 187
-3 3 10 21 29 41 20 19 38 44 42 55 3 11 24 39 46 63 69 75 75 83 82 101 4 9
15 21 24 25 10 4 19 18 21 31 3 30 21 53 34 45 6 -4 8 2 3 15 -8 26 50 176 75
194 16 11 60 95 66 127 8 42 35 144 41 154 4 6 6 21 5 32 -2 12 4 29 13 37 9
9 15 19 15 22 -1 3 1 22 4 43 4 20 8 118 11 216 3 98 7 181 10 184 12 12 4
110 -10 122 -18 15 -14 55 6 55 8 0 15 12 17 28 2 15 8 27 13 27 5 0 9 5 9 11
0 5 -5 7 -11 3 -8 -5 -10 4 -7 29 2 20 1 34 -3 31 -9 -5 -18 79 -9 91 4 6 10
20 13 33 4 18 2 22 -9 18 -15 -6 -36 31 -27 47 3 4 1 16 -3 25 -7 16 -14 45
-48 227 -30 154 -54 261 -79 345 -29 101 -30 103 -28 113 2 16 20 6 47 -27z
m-6040 -368 c-3 -35 -10 -106 -15 -158 -6 -52 -8 -104 -6 -115 2 -11 6 -84 10
-163 3 -79 10 -152 15 -162 7 -13 7 -21 -1 -26 -13 -8 -3 -85 12 -95 5 -3 14
-44 19 -90 8 -73 43 -250 70 -359 5 -19 12 -48 15 -65 7 -30 10 -40 41 -108 9
-21 14 -40 11 -43 -8 -8 21 -72 54 -121 16 -23 29 -44 29 -47 0 -3 25 -50 55
-104 30 -54 55 -104 55 -111 0 -7 11 -26 25 -43 14 -16 25 -36 25 -43 0 -8 18
-35 41 -62 71 -83 76 -90 80 -101 5 -13 128 -159 195 -232 28 -30 71 -77 95
-103 24 -26 76 -73 114 -104 39 -31 88 -75 110 -98 22 -24 58 -50 79 -59 22
-9 75 -43 118 -76 43 -33 82 -60 87 -60 4 0 27 -13 49 -30 23 -16 46 -30 52
-30 21 0 5 -34 -19 -42 -12 -3 -10 -9 7 -26 12 -12 22 -25 22 -28 0 -15 104
-118 120 -119 9 0 37 -17 61 -39 24 -21 54 -43 67 -49 26 -12 30 -32 5 -22
-233 88 -399 170 -553 273 -103 69 -267 189 -296 216 -180 170 -270 269 -354
391 -19 28 -38 52 -41 55 -5 4 -37 57 -74 122 -76 133 -119 204 -129 210 -6 4
-7 8 -2 8 5 0 4 6 -1 13 -6 6 -16 30 -23 52 -7 22 -19 49 -25 60 -7 11 -16 31
-20 45 -4 14 -13 39 -20 55 -35 78 -75 188 -75 204 0 9 -4 21 -9 26 -11 12
-72 244 -94 360 -9 44 -21 107 -28 140 -21 108 -24 503 -5 676 9 85 19 161 23
169 3 8 7 34 9 58 3 42 10 62 20 62 3 0 3 -28 0 -62z m6575 -579 c12 -57 23
-122 25 -143 2 -22 6 -47 9 -57 3 -9 1 -20 -5 -24 -5 -3 -10 -11 -10 -16 0 -6
4 -7 10 -4 6 4 10 -30 10 -92 0 -54 1 -118 2 -143 3 -103 -3 -230 -10 -230 -5
0 -8 27 -8 61 1 33 -2 63 -6 65 -4 3 -2 14 5 25 9 14 9 22 1 27 -10 6 -28 266
-25 355 2 32 -25 238 -35 277 -5 19 -4 22 5 14 6 -6 21 -57 32 -115z m-2331
-1659 c-19 -16 -96 -59 -170 -96 -137 -69 -189 -100 -203 -121 -4 -6 -20 -10
-35 -8 -15 1 -31 -1 -37 -5 -10 -7 -26 -10 -125 -25 -60 -8 -38 5 70 43 47 16
128 50 180 76 52 25 100 46 107 46 13 0 79 34 178 93 69 40 86 39 35 -3z
m-1445 -999 c197 -29 271 -35 467 -35 120 -1 218 -2 218 -4 0 -2 -7 -10 -15
-18 -11 -12 -64 -15 -292 -17 -247 -2 -286 0 -348 17 -38 11 -77 25 -86 33 -8
7 -24 13 -35 13 -10 0 -28 7 -39 16 -22 16 -15 16 130 -5z"/>
<path d="M38809 8270 c-1 -8 -1 -19 0 -24 1 -5 -6 -5 -16 -1 -21 8 -25 9 -75
7 -31 -2 -38 -6 -38 -23 0 -12 -5 -19 -12 -16 -7 2 -24 -1 -38 -8 -14 -7 -45
-11 -69 -10 -27 2 -52 -2 -66 -11 -17 -11 -32 -13 -64 -5 -24 5 -41 5 -41 0 0
-19 -29 -8 -50 19 -13 16 -23 22 -26 15 -4 -8 -14 -9 -35 -3 -22 7 -29 5 -29
-5 0 -8 5 -17 10 -20 6 -3 10 -1 10 5 0 7 6 8 19 0 11 -5 18 -18 17 -27 -3
-16 -34 -28 -124 -50 -12 -3 -22 -10 -21 -17 3 -26 -2 -46 -11 -46 -5 0 -9 3
-9 8 4 25 -3 42 -18 42 -13 0 -14 -3 -6 -11 8 -8 8 -20 3 -34 -7 -17 -5 -25 6
-29 8 -3 12 -10 9 -16 -6 -10 13 -15 51 -11 12 1 24 -5 28 -14 3 -8 0 -15 -7
-15 -7 -1 -1 -7 12 -14 18 -10 21 -15 10 -18 -8 -3 -4 -4 7 -2 23 4 49 -19 40
-35 -4 -5 26 -12 71 -16 55 -5 100 -17 153 -40 85 -38 98 -41 123 -30 9 4 27
5 39 2 13 -4 29 0 39 9 10 9 52 20 96 25 137 17 150 20 181 49 17 15 42 30 57
34 22 6 26 11 23 38 -2 17 -9 33 -16 34 -7 1 -8 0 -2 -3 23 -11 8 -23 -28 -21
-22 0 -44 -2 -50 -6 -8 -5 -10 -2 -6 9 6 14 -2 15 -60 10 -56 -6 -66 -4 -66 9
0 9 11 18 25 22 28 7 32 19 10 28 -8 3 -15 10 -15 17 0 6 7 9 15 5 9 -3 15 0
15 9 0 10 12 14 43 13 23 0 58 4 77 9 37 10 36 8 28 85 -2 19 -9 28 -20 28
-10 0 -35 9 -57 21 -48 24 -69 29 -96 19 -13 -5 -24 -2 -32 9 -11 14 -13 14
-14 1z"/>
<path d="M38059 7731 c-13 -11 -19 -20 -12 -21 6 0 15 5 19 12 5 8 10 6 14 -7
7 -21 54 -34 204 -59 96 -17 151 -42 124 -57 -8 -5 -41 -4 -73 1 -32 5 -69 7
-81 4 -13 -3 -29 -2 -36 2 -7 5 -42 10 -77 12 l-64 3 15 -22 c9 -15 33 -27 64
-35 77 -18 78 -18 91 -34 11 -13 14 -13 22 0 9 13 12 13 28 -2 16 -17 15 -18
-26 -18 -34 0 -44 -4 -48 -20 -3 -11 -10 -20 -15 -20 -5 0 -7 4 -4 9 8 12 -35
19 -60 11 -16 -6 -13 -10 23 -29 23 -11 49 -21 56 -21 8 0 20 -7 27 -15 7 -8
24 -15 37 -15 33 0 128 -27 178 -50 75 -35 180 -75 189 -72 4 2 19 -4 33 -13
13 -9 32 -15 41 -13 13 2 9 9 -16 27 -18 12 -39 24 -47 25 -32 5 -28 18 5 16
52 -3 60 -1 58 13 -3 14 55 11 60 -4 2 -5 8 -9 13 -9 16 0 10 25 -12 43 -16
14 -18 21 -9 32 7 9 8 15 0 20 -5 3 -10 21 -10 40 0 31 -21 65 -39 65 -4 0
-21 11 -37 26 -49 42 -143 94 -173 94 -16 0 -34 6 -40 14 -6 7 -35 17 -63 20
-29 4 -58 12 -64 17 -7 5 -16 9 -20 8 -5 -1 -25 1 -44 5 -19 4 -66 11 -105 15
-38 4 -77 11 -86 15 -9 4 -25 -1 -40 -13z"/>
</g>
</svg>
